<svg xmlns="http://www.w3.org/2000/svg" xmlns:xlink="http://www.w3.org/1999/xlink" width="150" zoomAndPan="magnify" viewBox="0 0 112.5 809.999998" height="1080" preserveAspectRatio="xMidYMid meet" version="1.0"><defs><clipPath id="a41d9ecc5a"><path d="M 11.199219 349 L 100.800781 349 L 100.800781 452.039062 L 11.199219 452.039062 Z M 11.199219 349 " clip-rule="nonzero"/></clipPath><clipPath id="9d203c8203"><path d="M 11.199219 2.539062 L 100.800781 2.539062 L 100.800781 92.140625 L 11.199219 92.140625 Z M 11.199219 2.539062 " clip-rule="nonzero"/></clipPath><clipPath id="f7c49e6e4c"><path d="M 11.199219 703.671875 L 100.800781 703.671875 L 100.800781 801.488281 L 11.199219 801.488281 Z M 11.199219 703.671875 " clip-rule="nonzero"/></clipPath><clipPath id="391fc3c180"><path d="M 27.8125 117.527344 L 84.1875 117.527344 L 84.1875 173.902344 L 27.8125 173.902344 Z M 27.8125 117.527344 " clip-rule="nonzero"/></clipPath><clipPath id="17b863c73f"><path d="M 56 117.527344 C 40.433594 117.527344 27.8125 130.148438 27.8125 145.714844 C 27.8125 161.28125 40.433594 173.902344 56 173.902344 C 71.570312 173.902344 84.1875 161.28125 84.1875 145.714844 C 84.1875 130.148438 71.570312 117.527344 56 117.527344 Z M 56 117.527344 " clip-rule="nonzero"/></clipPath><clipPath id="12aae16edf"><path d="M 27.8125 233.261719 L 84.1875 233.261719 L 84.1875 289.636719 L 27.8125 289.636719 Z M 27.8125 233.261719 " clip-rule="nonzero"/></clipPath><clipPath id="acd2a5a7a7"><path d="M 56 233.261719 C 40.433594 233.261719 27.8125 245.882812 27.8125 261.449219 C 27.8125 277.019531 40.433594 289.636719 56 289.636719 C 71.570312 289.636719 84.1875 277.019531 84.1875 261.449219 C 84.1875 245.882812 71.570312 233.261719 56 233.261719 Z M 56 233.261719 " clip-rule="nonzero"/></clipPath><clipPath id="bf50679bd9"><path d="M 27.8125 465.109375 L 84.1875 465.109375 L 84.1875 521.480469 L 27.8125 521.480469 Z M 27.8125 465.109375 " clip-rule="nonzero"/></clipPath><clipPath id="377c86afac"><path d="M 56 465.109375 C 40.433594 465.109375 27.8125 477.726562 27.8125 493.296875 C 27.8125 508.863281 40.433594 521.480469 56 521.480469 C 71.570312 521.480469 84.1875 508.863281 84.1875 493.296875 C 84.1875 477.726562 71.570312 465.109375 56 465.109375 Z M 56 465.109375 " clip-rule="nonzero"/></clipPath><clipPath id="42b7311448"><path d="M 27.8125 581.21875 L 84.1875 581.21875 L 84.1875 637.589844 L 27.8125 637.589844 Z M 27.8125 581.21875 " clip-rule="nonzero"/></clipPath><clipPath id="b756b977ce"><path d="M 56 581.21875 C 40.433594 581.21875 27.8125 593.835938 27.8125 609.402344 C 27.8125 624.972656 40.433594 637.589844 56 637.589844 C 71.570312 637.589844 84.1875 624.972656 84.1875 609.402344 C 84.1875 593.835938 71.570312 581.21875 56 581.21875 Z M 56 581.21875 " clip-rule="nonzero"/></clipPath></defs><g clip-path="url(#a41d9ecc5a)"><path fill="#dbe2ef" d="M 100.8125 375.671875 C 100.8125 375.082031 100.496094 374.53125 99.984375 374.234375 L 56.839844 349.324219 C 56.324219 349.027344 55.691406 349.027344 55.179688 349.324219 L 27.230469 365.460938 C 27.226562 365.460938 27.226562 365.464844 27.226562 365.464844 L 12.039062 374.234375 C 12.039062 374.234375 12.035156 374.234375 12.03125 374.234375 C 11.96875 374.273438 11.90625 374.316406 11.847656 374.359375 C 11.441406 374.671875 11.199219 375.15625 11.199219 375.675781 C 11.199219 375.6875 11.203125 375.699219 11.203125 375.710938 L 11.199219 425.496094 C 11.199219 426.089844 11.515625 426.636719 12.03125 426.933594 L 55.175781 451.84375 C 55.433594 451.992188 55.71875 452.066406 56.007812 452.066406 C 56.292969 452.066406 56.578125 451.988281 56.835938 451.84375 L 99.984375 426.933594 C 100.496094 426.636719 100.8125 426.089844 100.8125 425.496094 Z M 83.105469 386.851562 L 83.105469 393.8125 L 73.175781 399.546875 L 73.175781 392.585938 Z M 28.09375 368.796875 L 67.917969 391.789062 L 56.007812 398.664062 L 16.183594 375.671875 Z M 41.621094 360.984375 L 81.445312 383.976562 L 71.234375 389.871094 L 31.414062 366.878906 Z M 56.007812 352.679688 L 95.828125 375.671875 L 84.765625 382.0625 L 44.941406 359.066406 Z M 14.523438 378.550781 L 54.347656 401.542969 L 54.347656 447.53125 L 14.519531 424.539062 Z M 57.667969 447.527344 L 57.667969 401.539062 L 69.855469 394.503906 L 69.855469 402.421875 C 69.855469 403.015625 70.171875 403.5625 70.6875 403.859375 C 70.941406 404.007812 71.230469 404.082031 71.515625 404.082031 C 71.800781 404.082031 72.089844 404.003906 72.34375 403.859375 L 85.597656 396.207031 C 86.109375 395.914062 86.425781 395.363281 86.425781 394.773438 L 86.425781 384.9375 L 97.492188 378.546875 L 97.492188 424.535156 Z M 77.542969 412.957031 C 77.03125 412.660156 76.398438 412.660156 75.882812 412.957031 L 63.234375 420.257812 C 62.71875 420.554688 62.402344 421.105469 62.402344 421.695312 L 62.402344 436.308594 C 62.402344 436.898438 62.71875 437.449219 63.234375 437.742188 C 63.488281 437.894531 63.777344 437.964844 64.0625 437.964844 C 64.347656 437.964844 64.636719 437.890625 64.890625 437.742188 L 77.542969 430.4375 C 78.054688 430.140625 78.371094 429.59375 78.371094 429 L 78.371094 414.390625 C 78.371094 413.800781 78.054688 413.253906 77.542969 412.957031 Z M 65.722656 433.433594 L 65.722656 422.65625 L 75.050781 417.269531 L 75.050781 428.042969 Z M 29.320312 426.332031 C 29.011719 426.863281 28.457031 427.160156 27.878906 427.160156 C 27.597656 427.160156 27.3125 427.085938 27.050781 426.9375 L 18.441406 421.964844 C 17.648438 421.507812 17.375 420.492188 17.832031 419.699219 C 18.292969 418.90625 19.304688 418.632812 20.101562 419.089844 L 28.710938 424.0625 C 29.503906 424.523438 29.777344 425.535156 29.320312 426.332031 Z M 29.320312 426.332031 " fill-opacity="1" fill-rule="nonzero"/></g><g clip-path="url(#9d203c8203)"><path fill="#dbe2ef" d="M 97.21875 2.539062 L 81.984375 2.539062 L 78.402344 47.339844 L 64.960938 47.339844 L 64.960938 33.898438 L 38.082031 47.339844 L 38.082031 33.898438 L 11.199219 47.339844 L 11.199219 92.140625 L 100.800781 92.140625 Z M 29.121094 65.261719 L 20.160156 65.261719 L 20.160156 56.300781 L 29.121094 56.300781 Z M 47.039062 65.261719 L 38.082031 65.261719 L 38.082031 56.300781 L 47.039062 56.300781 Z M 56 56.300781 L 64.960938 56.300781 L 64.960938 65.261719 L 56 65.261719 Z M 29.121094 83.179688 L 20.160156 83.179688 L 20.160156 74.21875 L 29.121094 74.21875 Z M 47.039062 83.179688 L 38.082031 83.179688 L 38.082031 74.21875 L 47.039062 74.21875 Z M 56 74.21875 L 64.960938 74.21875 L 64.960938 83.179688 L 56 83.179688 Z M 73.921875 56.300781 L 82.882812 56.300781 L 82.882812 65.261719 L 73.921875 65.261719 Z M 73.921875 74.21875 L 82.882812 74.21875 L 82.882812 83.179688 L 73.921875 83.179688 Z M 73.921875 74.21875 " fill-opacity="1" fill-rule="nonzero"/></g><g clip-path="url(#f7c49e6e4c)"><path fill="#dbe2ef" d="M 100.796875 792.324219 L 100.796875 791.339844 C 100.796875 785.296875 99.609375 779.429688 97.273438 773.90625 C 95.015625 768.570312 91.789062 763.78125 87.675781 759.667969 C 83.5625 755.558594 78.773438 752.328125 73.4375 750.070312 C 73.089844 749.921875 72.734375 749.78125 72.378906 749.640625 C 73.050781 749.089844 73.699219 748.507812 74.316406 747.886719 C 76.695312 745.511719 78.5625 742.742188 79.867188 739.65625 C 81.21875 736.460938 81.902344 733.066406 81.902344 729.574219 C 81.902344 726.078125 81.21875 722.6875 79.867188 719.488281 C 78.5625 716.40625 76.695312 713.636719 74.316406 711.257812 C 71.941406 708.882812 69.171875 707.015625 66.085938 705.710938 C 62.890625 704.359375 59.496094 703.671875 56.003906 703.671875 C 52.507812 703.671875 49.117188 704.359375 45.917969 705.710938 C 42.835938 707.015625 40.066406 708.882812 37.6875 711.257812 C 35.308594 713.636719 33.445312 716.40625 32.140625 719.488281 C 30.785156 722.6875 30.101562 726.078125 30.101562 729.574219 C 30.101562 733.066406 30.785156 736.460938 32.140625 739.65625 C 33.445312 742.742188 35.3125 745.511719 37.6875 747.886719 C 38.308594 748.507812 38.953125 749.089844 39.625 749.640625 C 39.269531 749.78125 38.914062 749.921875 38.566406 750.070312 C 33.230469 752.328125 28.441406 755.558594 24.328125 759.667969 C 20.21875 763.78125 16.988281 768.570312 14.734375 773.90625 C 12.394531 779.429688 11.210938 785.296875 11.210938 791.339844 L 11.210938 792.324219 C 11.210938 796.921875 14.738281 800.710938 19.230469 801.125 L 93.382812 801.050781 L 93.410156 801.046875 C 94.183594 800.96875 94.929688 800.738281 95.613281 800.371094 C 98.667969 798.976562 100.796875 795.894531 100.796875 792.324219 Z M 36.914062 737.636719 C 35.832031 735.082031 35.285156 732.371094 35.285156 729.574219 C 35.285156 726.777344 35.832031 724.0625 36.914062 721.507812 C 37.957031 719.042969 39.449219 716.824219 41.351562 714.921875 C 43.253906 713.019531 45.472656 711.527344 47.9375 710.484375 C 50.492188 709.402344 53.207031 708.855469 56.003906 708.855469 C 58.800781 708.855469 61.511719 709.402344 64.066406 710.484375 C 66.535156 711.527344 68.75 713.019531 70.652344 714.921875 C 72.554688 716.824219 74.050781 719.042969 75.09375 721.507812 C 76.171875 724.0625 76.722656 726.777344 76.722656 729.574219 C 76.722656 732.371094 76.171875 735.082031 75.09375 737.636719 C 74.050781 740.105469 72.554688 742.320312 70.652344 744.222656 C 68.75 746.125 66.535156 747.621094 64.066406 748.664062 C 61.511719 749.742188 58.800781 750.292969 56.003906 750.292969 C 53.207031 750.292969 50.492188 749.742188 47.9375 748.664062 C 45.472656 747.621094 43.253906 746.125 41.351562 744.222656 C 39.449219 742.320312 37.957031 740.105469 36.914062 737.636719 Z M 95.613281 792.324219 C 95.613281 794.34375 93.972656 795.980469 91.957031 795.980469 L 20.050781 795.980469 C 18.03125 795.980469 16.394531 794.34375 16.394531 792.324219 L 16.394531 791.339844 C 16.394531 785.996094 17.441406 780.808594 19.503906 775.921875 C 21.5 771.207031 24.355469 766.972656 27.992188 763.332031 C 31.632812 759.695312 35.867188 756.839844 40.585938 754.84375 C 41.625 754.40625 42.691406 754.007812 43.757812 753.660156 C 44.132812 753.539062 44.511719 753.421875 44.886719 753.3125 C 45.023438 753.269531 45.15625 753.21875 45.285156 753.15625 C 45.496094 753.253906 45.707031 753.347656 45.917969 753.4375 C 49.117188 754.789062 52.507812 755.472656 56.003906 755.472656 C 59.496094 755.472656 62.890625 754.789062 66.085938 753.4375 C 66.300781 753.347656 66.511719 753.253906 66.722656 753.15625 C 66.847656 753.21875 66.980469 753.269531 67.121094 753.3125 C 68.570312 753.734375 70.019531 754.25 71.421875 754.84375 C 76.136719 756.839844 80.375 759.695312 84.011719 763.332031 C 87.648438 766.972656 90.503906 771.207031 92.5 775.921875 C 94.566406 780.808594 95.613281 785.996094 95.613281 791.339844 Z M 95.613281 792.324219 " fill-opacity="1" fill-rule="nonzero"/></g><g clip-path="url(#391fc3c180)"><g clip-path="url(#17b863c73f)"><path fill="#dbe2ef" d="M 27.8125 117.527344 L 84.1875 117.527344 L 84.1875 173.902344 L 27.8125 173.902344 Z M 27.8125 117.527344 " fill-opacity="1" fill-rule="nonzero"/></g></g><g clip-path="url(#12aae16edf)"><g clip-path="url(#acd2a5a7a7)"><path fill="#dbe2ef" d="M 27.8125 233.261719 L 84.1875 233.261719 L 84.1875 289.636719 L 27.8125 289.636719 Z M 27.8125 233.261719 " fill-opacity="1" fill-rule="nonzero"/></g></g><g clip-path="url(#bf50679bd9)"><g clip-path="url(#377c86afac)"><path fill="#dbe2ef" d="M 27.8125 465.109375 L 84.1875 465.109375 L 84.1875 521.480469 L 27.8125 521.480469 Z M 27.8125 465.109375 " fill-opacity="1" fill-rule="nonzero"/></g></g><g clip-path="url(#42b7311448)"><g clip-path="url(#b756b977ce)"><path fill="#dbe2ef" d="M 27.8125 581.21875 L 84.1875 581.21875 L 84.1875 637.589844 L 27.8125 637.589844 Z M 27.8125 581.21875 " fill-opacity="1" fill-rule="nonzero"/></g></g></svg>