<svg xmlns="http://www.w3.org/2000/svg" xmlns:xlink="http://www.w3.org/1999/xlink" width="1080" zoomAndPan="magnify" viewBox="0 0 810 809.999993" height="1080" preserveAspectRatio="xMidYMid meet" version="1.0"><defs><clipPath id="cdd314adc0"><path d="M 346 64 L 478 64 L 478 193 L 346 193 Z M 346 64 " clip-rule="nonzero"/></clipPath><clipPath id="fabcfe4749"><path d="M 412.296875 50.542969 L 484.054688 137.1875 L 397.410156 208.941406 L 325.652344 122.296875 Z M 412.296875 50.542969 " clip-rule="nonzero"/></clipPath><clipPath id="c32bbcbd6d"><path d="M 412.296875 50.542969 L 484.054688 137.1875 L 397.410156 208.941406 L 325.652344 122.296875 Z M 412.296875 50.542969 " clip-rule="nonzero"/></clipPath></defs><path fill="#dbe2ef" d="M 405 780 C 198.289062 780 30 611.710938 30 405 C 30 198.289062 198.289062 30 405 30 C 611.710938 30 780 198.289062 780 405 C 780 611.710938 611.710938 780 405 780 Z M 405 35.542969 C 201.242188 35.542969 35.542969 201.242188 35.542969 405 C 35.542969 608.757812 201.242188 774.457031 405 774.457031 C 608.757812 774.457031 774.457031 608.757812 774.457031 405 C 774.457031 201.242188 608.757812 35.542969 405 35.542969 Z M 405 35.542969 " fill-opacity="1" fill-rule="nonzero"/><g clip-path="url(#cdd314adc0)"><g clip-path="url(#fabcfe4749)"><g clip-path="url(#c32bbcbd6d)"><path fill="#dbe2ef" d="M 395.445312 64.847656 L 401.949219 65.292969 C 405.65625 65.640625 407.78125 69.636719 407.78125 69.636719 L 414.78125 80.914062 L 424.050781 81.886719 C 428.945312 82.390625 426.90625 88.191406 424.625 88.292969 L 419.382812 88.195312 L 426.394531 100.777344 L 433.777344 100.902344 C 441.785156 100.941406 439.960938 107.417969 435.976562 107.707031 L 430.96875 107.824219 L 442.402344 125.984375 C 467.636719 128.84375 478.027344 129.9375 477.753906 136.414062 C 477.480469 142.929688 465.308594 141.882812 441.453125 139.996094 L 426.496094 156.3125 L 432.203125 157.375 C 435.570312 158.003906 435.84375 163.847656 429.242188 163.050781 L 420.875 162.015625 L 411.472656 173.160156 L 416.1875 174.230469 C 420.421875 175.121094 420.292969 180.558594 413.613281 180.152344 L 405.007812 179.375 C 404.703125 179.300781 396.578125 188.933594 396.578125 188.933594 C 392.777344 193.871094 388.882812 192.648438 388.882812 192.648438 L 383.410156 191.753906 L 407.832031 150.90625 C 410.027344 147.375 411.203125 142.070312 407.257812 138.105469 C 405.140625 136.035156 396.527344 133.511719 394.96875 133.496094 L 371.226562 130.796875 C 370.703125 130.65625 356.332031 146.570312 356.332031 146.570312 C 355.851562 146.96875 346.851562 147.328125 346.851562 147.328125 L 354.851562 126.535156 L 349.484375 123.980469 L 355.273438 123.28125 L 351.285156 101.070312 L 360.132812 103.308594 C 361.742188 106.53125 371.886719 122.019531 372.269531 122.1875 C 372.269531 122.1875 393.269531 124.25 394.507812 124.335938 C 401.671875 124.832031 404.230469 124.875 406.6875 123.8125 C 409.148438 122.753906 411.234375 119.363281 409.949219 110.335938 C 408.183594 97.886719 395.445312 64.847656 395.445312 64.847656 Z M 395.445312 64.847656 " fill-opacity="1" fill-rule="nonzero"/></g></g></g></svg>