<svg xmlns="http://www.w3.org/2000/svg" xmlns:xlink="http://www.w3.org/1999/xlink" width="150" zoomAndPan="magnify" viewBox="0 0 112.5 809.999998" height="1080" preserveAspectRatio="xMidYMid meet" version="1.0"><defs><clipPath id="8363ea29de"><path d="M 11.199219 581.21875 L 100.800781 581.21875 L 100.800781 684.257812 L 11.199219 684.257812 Z M 11.199219 581.21875 " clip-rule="nonzero"/></clipPath><clipPath id="e8bf243799"><path d="M 11.199219 2.539062 L 100.800781 2.539062 L 100.800781 92.140625 L 11.199219 92.140625 Z M 11.199219 2.539062 " clip-rule="nonzero"/></clipPath><clipPath id="a7a9946007"><path d="M 11.199219 703.671875 L 100.800781 703.671875 L 100.800781 801.488281 L 11.199219 801.488281 Z M 11.199219 703.671875 " clip-rule="nonzero"/></clipPath><clipPath id="7c4032b0c2"><path d="M 27.8125 117.527344 L 84.1875 117.527344 L 84.1875 173.902344 L 27.8125 173.902344 Z M 27.8125 117.527344 " clip-rule="nonzero"/></clipPath><clipPath id="7eebecfbc5"><path d="M 56 117.527344 C 40.433594 117.527344 27.8125 130.148438 27.8125 145.714844 C 27.8125 161.28125 40.433594 173.902344 56 173.902344 C 71.570312 173.902344 84.1875 161.28125 84.1875 145.714844 C 84.1875 130.148438 71.570312 117.527344 56 117.527344 Z M 56 117.527344 " clip-rule="nonzero"/></clipPath><clipPath id="cf2bcfff5a"><path d="M 27.8125 233.261719 L 84.1875 233.261719 L 84.1875 289.636719 L 27.8125 289.636719 Z M 27.8125 233.261719 " clip-rule="nonzero"/></clipPath><clipPath id="eb76292286"><path d="M 56 233.261719 C 40.433594 233.261719 27.8125 245.882812 27.8125 261.449219 C 27.8125 277.019531 40.433594 289.636719 56 289.636719 C 71.570312 289.636719 84.1875 277.019531 84.1875 261.449219 C 84.1875 245.882812 71.570312 233.261719 56 233.261719 Z M 56 233.261719 " clip-rule="nonzero"/></clipPath><clipPath id="293fad5661"><path d="M 27.8125 349 L 84.1875 349 L 84.1875 405.375 L 27.8125 405.375 Z M 27.8125 349 " clip-rule="nonzero"/></clipPath><clipPath id="dceac34f9b"><path d="M 56 349 C 40.433594 349 27.8125 361.617188 27.8125 377.1875 C 27.8125 392.753906 40.433594 405.375 56 405.375 C 71.570312 405.375 84.1875 392.753906 84.1875 377.1875 C 84.1875 361.617188 71.570312 349 56 349 Z M 56 349 " clip-rule="nonzero"/></clipPath><clipPath id="f55ee0a75b"><path d="M 27.8125 465.109375 L 84.1875 465.109375 L 84.1875 521.480469 L 27.8125 521.480469 Z M 27.8125 465.109375 " clip-rule="nonzero"/></clipPath><clipPath id="dcc6f7e704"><path d="M 56 465.109375 C 40.433594 465.109375 27.8125 477.726562 27.8125 493.296875 C 27.8125 508.863281 40.433594 521.480469 56 521.480469 C 71.570312 521.480469 84.1875 508.863281 84.1875 493.296875 C 84.1875 477.726562 71.570312 465.109375 56 465.109375 Z M 56 465.109375 " clip-rule="nonzero"/></clipPath></defs><g clip-path="url(#8363ea29de)"><path fill="#dbe2ef" d="M 100.8125 607.890625 C 100.8125 607.296875 100.496094 606.75 99.984375 606.453125 L 56.839844 581.542969 C 56.324219 581.246094 55.691406 581.246094 55.179688 581.542969 L 27.230469 597.679688 C 27.226562 597.679688 27.226562 597.683594 27.226562 597.683594 L 12.039062 606.449219 C 12.039062 606.453125 12.035156 606.453125 12.03125 606.453125 C 11.96875 606.492188 11.90625 606.535156 11.847656 606.578125 C 11.441406 606.890625 11.199219 607.375 11.199219 607.894531 C 11.199219 607.90625 11.203125 607.917969 11.203125 607.929688 L 11.199219 657.714844 C 11.199219 658.304688 11.515625 658.855469 12.03125 659.152344 L 55.175781 684.0625 C 55.433594 684.210938 55.71875 684.28125 56.007812 684.28125 C 56.292969 684.28125 56.578125 684.207031 56.835938 684.0625 L 99.984375 659.152344 C 100.496094 658.855469 100.8125 658.304688 100.8125 657.714844 Z M 83.105469 619.070312 L 83.105469 626.03125 L 73.175781 631.765625 L 73.175781 624.804688 Z M 28.09375 601.015625 L 67.917969 624.007812 L 56.007812 630.882812 L 16.183594 607.890625 Z M 41.621094 593.203125 L 81.445312 616.195312 L 71.234375 622.089844 L 31.414062 599.097656 Z M 56.007812 584.898438 L 95.828125 607.890625 L 84.765625 614.28125 L 44.941406 591.285156 Z M 14.523438 610.769531 L 54.347656 633.761719 L 54.347656 679.75 L 14.519531 656.757812 Z M 57.667969 679.746094 L 57.667969 633.757812 L 69.855469 626.71875 L 69.855469 634.640625 C 69.855469 635.230469 70.171875 635.78125 70.6875 636.078125 C 70.941406 636.226562 71.230469 636.296875 71.515625 636.296875 C 71.800781 636.296875 72.089844 636.222656 72.34375 636.078125 L 85.597656 628.425781 C 86.109375 628.128906 86.425781 627.582031 86.425781 626.988281 L 86.425781 617.15625 L 97.492188 610.765625 L 97.492188 656.753906 Z M 77.542969 645.175781 C 77.03125 644.878906 76.398438 644.878906 75.882812 645.175781 L 63.234375 652.476562 C 62.71875 652.773438 62.402344 653.320312 62.402344 653.914062 L 62.402344 668.523438 C 62.402344 669.117188 62.71875 669.664062 63.234375 669.960938 C 63.488281 670.113281 63.777344 670.183594 64.0625 670.183594 C 64.347656 670.183594 64.636719 670.109375 64.890625 669.960938 L 77.542969 662.65625 C 78.054688 662.359375 78.371094 661.8125 78.371094 661.21875 L 78.371094 646.609375 C 78.371094 646.019531 78.054688 645.46875 77.542969 645.175781 Z M 65.722656 665.648438 L 65.722656 654.875 L 75.050781 649.484375 L 75.050781 660.261719 Z M 29.320312 658.546875 C 29.011719 659.082031 28.457031 659.378906 27.878906 659.378906 C 27.597656 659.378906 27.3125 659.304688 27.050781 659.15625 L 18.441406 654.183594 C 17.648438 653.726562 17.375 652.710938 17.832031 651.917969 C 18.292969 651.121094 19.304688 650.851562 20.101562 651.308594 L 28.710938 656.28125 C 29.503906 656.738281 29.777344 657.753906 29.320312 658.546875 Z M 29.320312 658.546875 " fill-opacity="1" fill-rule="nonzero"/></g><g clip-path="url(#e8bf243799)"><path fill="#dbe2ef" d="M 97.21875 2.539062 L 81.984375 2.539062 L 78.402344 47.339844 L 64.960938 47.339844 L 64.960938 33.898438 L 38.082031 47.339844 L 38.082031 33.898438 L 11.199219 47.339844 L 11.199219 92.140625 L 100.800781 92.140625 Z M 29.121094 65.261719 L 20.160156 65.261719 L 20.160156 56.300781 L 29.121094 56.300781 Z M 47.039062 65.261719 L 38.082031 65.261719 L 38.082031 56.300781 L 47.039062 56.300781 Z M 56 56.300781 L 64.960938 56.300781 L 64.960938 65.261719 L 56 65.261719 Z M 29.121094 83.179688 L 20.160156 83.179688 L 20.160156 74.21875 L 29.121094 74.21875 Z M 47.039062 83.179688 L 38.082031 83.179688 L 38.082031 74.21875 L 47.039062 74.21875 Z M 56 74.21875 L 64.960938 74.21875 L 64.960938 83.179688 L 56 83.179688 Z M 73.921875 56.300781 L 82.882812 56.300781 L 82.882812 65.261719 L 73.921875 65.261719 Z M 73.921875 74.21875 L 82.882812 74.21875 L 82.882812 83.179688 L 73.921875 83.179688 Z M 73.921875 74.21875 " fill-opacity="1" fill-rule="nonzero"/></g><g clip-path="url(#a7a9946007)"><path fill="#dbe2ef" d="M 100.796875 792.324219 L 100.796875 791.339844 C 100.796875 785.296875 99.609375 779.429688 97.273438 773.90625 C 95.015625 768.570312 91.789062 763.78125 87.675781 759.667969 C 83.5625 755.558594 78.773438 752.328125 73.4375 750.070312 C 73.089844 749.921875 72.734375 749.78125 72.378906 749.640625 C 73.050781 749.089844 73.699219 748.507812 74.316406 747.886719 C 76.695312 745.511719 78.5625 742.742188 79.867188 739.65625 C 81.21875 736.460938 81.902344 733.066406 81.902344 729.574219 C 81.902344 726.078125 81.21875 722.6875 79.867188 719.488281 C 78.5625 716.40625 76.695312 713.636719 74.316406 711.257812 C 71.941406 708.882812 69.171875 707.015625 66.085938 705.710938 C 62.890625 704.359375 59.496094 703.671875 56.003906 703.671875 C 52.507812 703.671875 49.117188 704.359375 45.917969 705.710938 C 42.835938 707.015625 40.066406 708.882812 37.6875 711.257812 C 35.308594 713.636719 33.445312 716.40625 32.140625 719.488281 C 30.785156 722.6875 30.101562 726.078125 30.101562 729.574219 C 30.101562 733.066406 30.785156 736.460938 32.140625 739.65625 C 33.445312 742.742188 35.3125 745.511719 37.6875 747.886719 C 38.308594 748.507812 38.953125 749.089844 39.625 749.640625 C 39.269531 749.78125 38.914062 749.921875 38.566406 750.070312 C 33.230469 752.328125 28.441406 755.558594 24.328125 759.667969 C 20.21875 763.78125 16.988281 768.570312 14.734375 773.90625 C 12.394531 779.429688 11.210938 785.296875 11.210938 791.339844 L 11.210938 792.324219 C 11.210938 796.921875 14.738281 800.710938 19.230469 801.125 L 93.382812 801.050781 L 93.410156 801.046875 C 94.183594 800.96875 94.929688 800.738281 95.613281 800.371094 C 98.667969 798.976562 100.796875 795.894531 100.796875 792.324219 Z M 36.914062 737.636719 C 35.832031 735.082031 35.285156 732.371094 35.285156 729.574219 C 35.285156 726.777344 35.832031 724.0625 36.914062 721.507812 C 37.957031 719.042969 39.449219 716.824219 41.351562 714.921875 C 43.253906 713.019531 45.472656 711.527344 47.9375 710.484375 C 50.492188 709.402344 53.207031 708.855469 56.003906 708.855469 C 58.800781 708.855469 61.511719 709.402344 64.066406 710.484375 C 66.535156 711.527344 68.75 713.019531 70.652344 714.921875 C 72.554688 716.824219 74.050781 719.042969 75.09375 721.507812 C 76.171875 724.0625 76.722656 726.777344 76.722656 729.574219 C 76.722656 732.371094 76.171875 735.082031 75.09375 737.636719 C 74.050781 740.105469 72.554688 742.320312 70.652344 744.222656 C 68.75 746.125 66.535156 747.621094 64.066406 748.664062 C 61.511719 749.742188 58.800781 750.292969 56.003906 750.292969 C 53.207031 750.292969 50.492188 749.742188 47.9375 748.664062 C 45.472656 747.621094 43.253906 746.125 41.351562 744.222656 C 39.449219 742.320312 37.957031 740.105469 36.914062 737.636719 Z M 95.613281 792.324219 C 95.613281 794.34375 93.972656 795.980469 91.957031 795.980469 L 20.050781 795.980469 C 18.03125 795.980469 16.394531 794.34375 16.394531 792.324219 L 16.394531 791.339844 C 16.394531 785.996094 17.441406 780.808594 19.503906 775.921875 C 21.5 771.207031 24.355469 766.972656 27.992188 763.332031 C 31.632812 759.695312 35.867188 756.839844 40.585938 754.84375 C 41.625 754.40625 42.691406 754.007812 43.757812 753.660156 C 44.132812 753.539062 44.511719 753.421875 44.886719 753.3125 C 45.023438 753.269531 45.15625 753.21875 45.285156 753.15625 C 45.496094 753.253906 45.707031 753.347656 45.917969 753.4375 C 49.117188 754.789062 52.507812 755.472656 56.003906 755.472656 C 59.496094 755.472656 62.890625 754.789062 66.085938 753.4375 C 66.300781 753.347656 66.511719 753.253906 66.722656 753.15625 C 66.847656 753.21875 66.980469 753.269531 67.121094 753.3125 C 68.570312 753.734375 70.019531 754.25 71.421875 754.84375 C 76.136719 756.839844 80.375 759.695312 84.011719 763.332031 C 87.648438 766.972656 90.503906 771.207031 92.5 775.921875 C 94.566406 780.808594 95.613281 785.996094 95.613281 791.339844 Z M 95.613281 792.324219 " fill-opacity="1" fill-rule="nonzero"/></g><g clip-path="url(#7c4032b0c2)"><g clip-path="url(#7eebecfbc5)"><path fill="#dbe2ef" d="M 27.8125 117.527344 L 84.1875 117.527344 L 84.1875 173.902344 L 27.8125 173.902344 Z M 27.8125 117.527344 " fill-opacity="1" fill-rule="nonzero"/></g></g><g clip-path="url(#cf2bcfff5a)"><g clip-path="url(#eb76292286)"><path fill="#dbe2ef" d="M 27.8125 233.261719 L 84.1875 233.261719 L 84.1875 289.636719 L 27.8125 289.636719 Z M 27.8125 233.261719 " fill-opacity="1" fill-rule="nonzero"/></g></g><g clip-path="url(#293fad5661)"><g clip-path="url(#dceac34f9b)"><path fill="#dbe2ef" d="M 27.8125 349 L 84.1875 349 L 84.1875 405.375 L 27.8125 405.375 Z M 27.8125 349 " fill-opacity="1" fill-rule="nonzero"/></g></g><g clip-path="url(#f55ee0a75b)"><g clip-path="url(#dcc6f7e704)"><path fill="#dbe2ef" d="M 27.8125 465.109375 L 84.1875 465.109375 L 84.1875 521.480469 L 27.8125 521.480469 Z M 27.8125 465.109375 " fill-opacity="1" fill-rule="nonzero"/></g></g></svg>