<svg xmlns="http://www.w3.org/2000/svg" xmlns:xlink="http://www.w3.org/1999/xlink" width="1080" zoomAndPan="magnify" viewBox="0 0 810 809.999993" height="1080" preserveAspectRatio="xMidYMid meet" version="1.0"><defs><g/></defs><g fill="#ffffff" fill-opacity="1"><g transform="translate(88.441062, 226.300403)"><g><path d="M -3.0625 -15.9375 L -3.5 -15.25 L -26.046875 -17.75 L -23.796875 -21.328125 L -4.953125 -19.03125 L -4.671875 -19.5 L -14.953125 -35.4375 L -12.703125 -39.03125 L -0.625 -19.828125 L -1.0625 -19.140625 L 8.3125 -13.265625 L 6.3125 -10.0625 Z M -3.0625 -15.9375 "/></g></g></g><g fill="#ffffff" fill-opacity="1"><g transform="translate(102.401119, 203.938836)"><g><path d="M 5.96875 -26.578125 C 7.46875 -25.472656 8.609375 -24.253906 9.390625 -22.921875 C 10.171875 -21.585938 10.648438 -20.21875 10.828125 -18.8125 C 11.015625 -17.414062 10.910156 -16.015625 10.515625 -14.609375 C 10.128906 -13.210938 9.5 -11.921875 8.625 -10.734375 C 7.738281 -9.523438 6.691406 -8.523438 5.484375 -7.734375 C 4.273438 -6.953125 2.976562 -6.4375 1.59375 -6.1875 C 0.207031 -5.945312 -1.238281 -5.992188 -2.75 -6.328125 C -4.257812 -6.671875 -5.765625 -7.394531 -7.265625 -8.5 L -7.71875 -8.8125 C -9.1875 -9.894531 -10.3125 -11.109375 -11.09375 -12.453125 C -11.882812 -13.796875 -12.375 -15.175781 -12.5625 -16.59375 C -12.75 -18.007812 -12.648438 -19.410156 -12.265625 -20.796875 C -11.878906 -22.191406 -11.253906 -23.484375 -10.390625 -24.671875 C -9.515625 -25.859375 -8.472656 -26.84375 -7.265625 -27.625 C -6.054688 -28.414062 -4.75 -28.9375 -3.34375 -29.1875 C -1.9375 -29.4375 -0.476562 -29.382812 1.03125 -29.03125 C 2.550781 -28.6875 4.046875 -27.972656 5.515625 -26.890625 Z M 5.9375 -12.703125 C 6.582031 -13.578125 7.023438 -14.492188 7.265625 -15.453125 C 7.503906 -16.421875 7.535156 -17.390625 7.359375 -18.359375 C 7.191406 -19.335938 6.816406 -20.28125 6.234375 -21.1875 C 5.648438 -22.101562 4.851562 -22.9375 3.84375 -23.6875 L 3.390625 -24 C 2.429688 -24.707031 1.429688 -25.195312 0.390625 -25.46875 C -0.648438 -25.75 -1.664062 -25.828125 -2.65625 -25.703125 C -3.644531 -25.578125 -4.578125 -25.253906 -5.453125 -24.734375 C -6.328125 -24.222656 -7.078125 -23.546875 -7.703125 -22.703125 C -8.316406 -21.847656 -8.734375 -20.925781 -8.953125 -19.9375 C -9.179688 -18.957031 -9.207031 -17.972656 -9.03125 -16.984375 C -8.863281 -15.992188 -8.488281 -15.046875 -7.90625 -14.140625 C -7.320312 -13.242188 -6.550781 -12.441406 -5.59375 -11.734375 L -5.140625 -11.421875 C -4.128906 -10.671875 -3.101562 -10.148438 -2.0625 -9.859375 C -1.019531 -9.578125 -0.00390625 -9.503906 0.984375 -9.640625 C 1.972656 -9.785156 2.890625 -10.113281 3.734375 -10.625 C 4.578125 -11.144531 5.3125 -11.835938 5.9375 -12.703125 Z M 5.9375 -12.703125 "/></g></g></g><g fill="#ffffff" fill-opacity="1"><g transform="translate(117.938344, 182.642865)"><g><path d="M -4.15625 -29.5625 L -1.875 -32.234375 L 15.125 -17.796875 L 12.84375 -15.125 L 9.765625 -17.75 L 9.421875 -17.34375 C 10.046875 -15.851562 10.296875 -14.390625 10.171875 -12.953125 C 10.054688 -11.523438 9.414062 -10.125 8.25 -8.75 C 7.445312 -7.8125 6.5625 -7.078125 5.59375 -6.546875 C 4.625 -6.015625 3.585938 -5.734375 2.484375 -5.703125 C 1.390625 -5.671875 0.257812 -5.890625 -0.90625 -6.359375 C -2.082031 -6.828125 -3.28125 -7.578125 -4.5 -8.609375 L -14.640625 -17.21875 L -12.359375 -19.890625 L -2.5625 -11.578125 C -0.78125 -10.054688 0.828125 -9.3125 2.265625 -9.34375 C 3.710938 -9.375 5.078125 -10.144531 6.359375 -11.65625 C 7.734375 -13.28125 8.257812 -15.023438 7.9375 -16.890625 C 7.625 -18.765625 6.539062 -20.484375 4.6875 -22.046875 Z M -4.15625 -29.5625 "/></g></g></g><g fill="#ffffff" fill-opacity="1"><g transform="translate(134.971714, 162.523547)"><g><path d="M -14.0625 -17.53125 L -8.390625 -23.3125 L -6.265625 -21.21875 L -5.875 -21.609375 C -6.351562 -22.878906 -6.4375 -24.09375 -6.125 -25.25 C -5.8125 -26.40625 -5.179688 -27.46875 -4.234375 -28.4375 C -2.660156 -30.039062 -0.867188 -30.820312 1.140625 -30.78125 C 3.160156 -30.738281 5.207031 -29.757812 7.28125 -27.84375 L 5.078125 -24.828125 C 3.597656 -26.285156 2.1875 -26.976562 0.84375 -26.90625 C -0.5 -26.84375 -1.671875 -26.300781 -2.671875 -25.28125 C -3.328125 -24.613281 -3.765625 -23.910156 -3.984375 -23.171875 C -4.203125 -22.441406 -4.242188 -21.695312 -4.109375 -20.9375 C -3.972656 -20.175781 -3.675781 -19.421875 -3.21875 -18.671875 C -2.769531 -17.929688 -2.203125 -17.226562 -1.515625 -16.5625 L 5.21875 -9.9375 L 9.1875 -13.984375 L 11.5 -11.71875 L 1.484375 -1.5 L -0.828125 -3.765625 L 2.765625 -7.4375 L -8.53125 -18.546875 L -11.75 -15.265625 Z M -14.0625 -17.53125 "/></g></g></g><g fill="#ffffff" fill-opacity="1"><g transform="translate(153.41243, 143.685742)"><g/></g></g><g fill="#ffffff" fill-opacity="1"><g transform="translate(173.164379, 126.227676)"><g><path d="M -3.21875 -18.359375 C -2.570312 -17.492188 -1.707031 -17.113281 -0.625 -17.21875 C 0.445312 -17.320312 2.003906 -18.035156 4.046875 -19.359375 C 6.253906 -20.765625 8.210938 -21.46875 9.921875 -21.46875 C 11.628906 -21.476562 13.085938 -20.691406 14.296875 -19.109375 L 14.453125 -18.90625 C 15.097656 -18.050781 15.507812 -17.144531 15.6875 -16.1875 C 15.863281 -15.238281 15.828125 -14.296875 15.578125 -13.359375 C 15.335938 -12.421875 14.875 -11.492188 14.1875 -10.578125 C 13.5 -9.671875 12.644531 -8.828125 11.625 -8.046875 C 10.238281 -6.992188 8.90625 -6.273438 7.625 -5.890625 C 6.351562 -5.503906 5.160156 -5.367188 4.046875 -5.484375 C 2.929688 -5.597656 1.910156 -5.914062 0.984375 -6.4375 C 0.0546875 -6.957031 -0.726562 -7.59375 -1.375 -8.34375 L 0.796875 -11.015625 C 1.953125 -9.734375 3.304688 -9.035156 4.859375 -8.921875 C 6.421875 -8.804688 7.976562 -9.335938 9.53125 -10.515625 C 10.84375 -11.515625 11.703125 -12.578125 12.109375 -13.703125 C 12.515625 -14.828125 12.363281 -15.851562 11.65625 -16.78125 C 10.894531 -17.78125 9.957031 -18.195312 8.84375 -18.03125 C 7.726562 -17.863281 6.242188 -17.164062 4.390625 -15.9375 C 2.222656 -14.519531 0.285156 -13.796875 -1.421875 -13.765625 C -3.140625 -13.742188 -4.59375 -14.507812 -5.78125 -16.0625 L -5.9375 -16.28125 C -6.582031 -17.113281 -6.960938 -17.984375 -7.078125 -18.890625 C -7.203125 -19.796875 -7.125 -20.695312 -6.84375 -21.59375 C -6.5625 -22.488281 -6.117188 -23.332031 -5.515625 -24.125 C -4.910156 -24.914062 -4.191406 -25.632812 -3.359375 -26.28125 C -2.179688 -27.164062 -1.03125 -27.78125 0.09375 -28.125 C 1.21875 -28.476562 2.273438 -28.625 3.265625 -28.5625 C 4.253906 -28.507812 5.164062 -28.269531 6 -27.84375 C 6.832031 -27.414062 7.550781 -26.90625 8.15625 -26.3125 L 5.984375 -23.65625 C 4.992188 -24.707031 3.851562 -25.253906 2.5625 -25.296875 C 1.269531 -25.335938 -0.0195312 -24.863281 -1.3125 -23.875 C -1.8125 -23.5 -2.253906 -23.078125 -2.640625 -22.609375 C -3.023438 -22.148438 -3.3125 -21.675781 -3.5 -21.1875 C -3.695312 -20.695312 -3.78125 -20.207031 -3.75 -19.71875 C -3.726562 -19.238281 -3.550781 -18.785156 -3.21875 -18.359375 Z M -3.21875 -18.359375 "/></g></g></g><g fill="#ffffff" fill-opacity="1"><g transform="translate(194.124525, 110.240362)"><g><path d="M 14.96875 -22.765625 C 15.988281 -21.203125 16.628906 -19.65625 16.890625 -18.125 C 17.148438 -16.59375 17.117188 -15.140625 16.796875 -13.765625 C 16.472656 -12.398438 15.878906 -11.128906 15.015625 -9.953125 C 14.148438 -8.773438 13.101562 -7.785156 11.875 -6.984375 C 10.613281 -6.171875 9.273438 -5.609375 7.859375 -5.296875 C 6.453125 -4.992188 5.054688 -4.96875 3.671875 -5.21875 C 2.285156 -5.476562 0.945312 -6.035156 -0.34375 -6.890625 C -1.632812 -7.753906 -2.789062 -8.96875 -3.8125 -10.53125 L -4.109375 -10.984375 C -5.097656 -12.515625 -5.722656 -14.039062 -5.984375 -15.5625 C -6.253906 -17.09375 -6.222656 -18.554688 -5.890625 -19.953125 C -5.566406 -21.347656 -4.976562 -22.628906 -4.125 -23.796875 C -3.269531 -24.960938 -2.226562 -25.945312 -1 -26.75 C 0.226562 -27.550781 1.546875 -28.101562 2.953125 -28.40625 C 4.367188 -28.71875 5.78125 -28.738281 7.1875 -28.46875 C 8.59375 -28.207031 9.941406 -27.648438 11.234375 -26.796875 C 12.535156 -25.941406 13.679688 -24.75 14.671875 -23.21875 Z M 10.0625 -9.78125 C 10.96875 -10.375 11.703125 -11.078125 12.265625 -11.890625 C 12.828125 -12.703125 13.195312 -13.597656 13.375 -14.578125 C 13.5625 -15.554688 13.539062 -16.570312 13.3125 -17.625 C 13.09375 -18.6875 12.640625 -19.742188 11.953125 -20.796875 L 11.65625 -21.25 C 11 -22.257812 10.234375 -23.078125 9.359375 -23.703125 C 8.484375 -24.328125 7.5625 -24.753906 6.59375 -24.984375 C 5.632812 -25.210938 4.648438 -25.238281 3.640625 -25.0625 C 2.640625 -24.894531 1.695312 -24.523438 0.8125 -23.953125 C -0.0703125 -23.378906 -0.789062 -22.671875 -1.34375 -21.828125 C -1.894531 -20.984375 -2.265625 -20.066406 -2.453125 -19.078125 C -2.640625 -18.097656 -2.617188 -17.082031 -2.390625 -16.03125 C -2.171875 -14.988281 -1.734375 -13.960938 -1.078125 -12.953125 L -0.78125 -12.5 C -0.09375 -11.445312 0.6875 -10.601562 1.5625 -9.96875 C 2.4375 -9.332031 3.359375 -8.898438 4.328125 -8.671875 C 5.296875 -8.453125 6.269531 -8.4375 7.25 -8.625 C 8.226562 -8.8125 9.164062 -9.195312 10.0625 -9.78125 Z M 10.0625 -9.78125 "/></g></g></g><g fill="#ffffff" fill-opacity="1"><g transform="translate(216.183684, 95.807145)"><g><path d="M 6.546875 -29.125 L 9.625 -30.828125 L 20.4375 -11.3125 L 17.359375 -9.609375 L 15.40625 -13.15625 L 14.9375 -12.90625 C 14.988281 -11.289062 14.707031 -9.832031 14.09375 -8.53125 C 13.476562 -7.226562 12.382812 -6.140625 10.8125 -5.265625 C 9.738281 -4.671875 8.648438 -4.296875 7.546875 -4.140625 C 6.441406 -3.992188 5.375 -4.097656 4.34375 -4.453125 C 3.3125 -4.816406 2.328125 -5.421875 1.390625 -6.265625 C 0.453125 -7.117188 -0.398438 -8.242188 -1.171875 -9.640625 L -7.625 -21.28125 L -4.546875 -22.984375 L 1.6875 -11.734375 C 2.820312 -9.679688 4.066406 -8.414062 5.421875 -7.9375 C 6.785156 -7.457031 8.332031 -7.695312 10.0625 -8.65625 C 11.925781 -9.6875 13.035156 -11.128906 13.390625 -12.984375 C 13.753906 -14.847656 13.347656 -16.84375 12.171875 -18.96875 Z M 6.546875 -29.125 "/></g></g></g><g fill="#ffffff" fill-opacity="1"><g transform="translate(239.226779, 83.003284)"><g><path d="M -6.96875 -21.359375 L 0.375 -24.765625 L 1.625 -22.078125 L 2.125 -22.3125 C 2.132812 -23.664062 2.488281 -24.828125 3.1875 -25.796875 C 3.894531 -26.765625 4.859375 -27.535156 6.078125 -28.109375 C 8.128906 -29.046875 10.085938 -29.140625 11.953125 -28.390625 C 13.828125 -27.640625 15.390625 -26 16.640625 -23.46875 L 13.53125 -21.4375 C 12.664062 -23.3125 11.59375 -24.457031 10.3125 -24.875 C 9.03125 -25.289062 7.734375 -25.195312 6.421875 -24.59375 C 5.585938 -24.207031 4.9375 -23.707031 4.46875 -23.09375 C 4.007812 -22.476562 3.707031 -21.789062 3.5625 -21.03125 C 3.414062 -20.269531 3.421875 -19.460938 3.578125 -18.609375 C 3.734375 -17.753906 4.015625 -16.894531 4.421875 -16.03125 L 8.390625 -7.453125 L 13.546875 -9.828125 L 14.90625 -6.890625 L 1.921875 -0.890625 L 0.5625 -3.828125 L 5.21875 -5.984375 L -1.4375 -20.359375 L -5.609375 -18.421875 Z M -6.96875 -21.359375 "/></g></g></g><g fill="#ffffff" fill-opacity="1"><g transform="translate(263.133675, 71.895525)"><g><path d="M 20.40625 -16.171875 C 20.613281 -14.941406 20.628906 -13.726562 20.453125 -12.53125 C 20.273438 -11.34375 19.898438 -10.226562 19.328125 -9.1875 C 18.765625 -8.15625 17.988281 -7.234375 17 -6.421875 C 16.019531 -5.609375 14.84375 -4.941406 13.46875 -4.421875 C 12.007812 -3.867188 10.539062 -3.582031 9.0625 -3.5625 C 7.582031 -3.550781 6.175781 -3.816406 4.84375 -4.359375 C 3.507812 -4.898438 2.304688 -5.722656 1.234375 -6.828125 C 0.171875 -7.929688 -0.679688 -9.332031 -1.328125 -11.03125 L -1.515625 -11.546875 C -2.160156 -13.234375 -2.445312 -14.859375 -2.375 -16.421875 C -2.3125 -17.984375 -1.960938 -19.410156 -1.328125 -20.703125 C -0.691406 -22.003906 0.175781 -23.148438 1.28125 -24.140625 C 2.394531 -25.140625 3.679688 -25.914062 5.140625 -26.46875 C 6.472656 -26.96875 7.773438 -27.234375 9.046875 -27.265625 C 10.316406 -27.296875 11.515625 -27.113281 12.640625 -26.71875 C 13.773438 -26.332031 14.796875 -25.753906 15.703125 -24.984375 C 16.617188 -24.210938 17.390625 -23.289062 18.015625 -22.21875 L 15.03125 -20.203125 C 14.664062 -20.898438 14.191406 -21.53125 13.609375 -22.09375 C 13.023438 -22.664062 12.363281 -23.101562 11.625 -23.40625 C 10.882812 -23.71875 10.0625 -23.878906 9.15625 -23.890625 C 8.25 -23.910156 7.273438 -23.722656 6.234375 -23.328125 C 5.234375 -22.953125 4.359375 -22.40625 3.609375 -21.6875 C 2.867188 -20.976562 2.289062 -20.148438 1.875 -19.203125 C 1.46875 -18.265625 1.253906 -17.242188 1.234375 -16.140625 C 1.210938 -15.046875 1.414062 -13.9375 1.84375 -12.8125 L 2.03125 -12.296875 C 2.476562 -11.117188 3.066406 -10.132812 3.796875 -9.34375 C 4.535156 -8.550781 5.359375 -7.957031 6.265625 -7.5625 C 7.179688 -7.175781 8.15625 -6.976562 9.1875 -6.96875 C 10.226562 -6.957031 11.265625 -7.144531 12.296875 -7.53125 C 13.347656 -7.925781 14.195312 -8.429688 14.84375 -9.046875 C 15.488281 -9.660156 15.984375 -10.332031 16.328125 -11.0625 C 16.679688 -11.789062 16.894531 -12.550781 16.96875 -13.34375 C 17.039062 -14.132812 16.992188 -14.914062 16.828125 -15.6875 Z M 20.40625 -16.171875 "/></g></g></g><g fill="#ffffff" fill-opacity="1"><g transform="translate(287.779786, 62.541772)"><g><path d="M 3.34375 -11.5 C 4.050781 -9.394531 5.21875 -7.878906 6.84375 -6.953125 C 8.46875 -6.035156 10.390625 -5.90625 12.609375 -6.5625 C 13.617188 -6.863281 14.460938 -7.238281 15.140625 -7.6875 C 15.816406 -8.144531 16.359375 -8.65625 16.765625 -9.21875 C 17.179688 -9.78125 17.472656 -10.375 17.640625 -11 C 17.804688 -11.625 17.90625 -12.273438 17.9375 -12.953125 L 21.375 -13.015625 C 21.363281 -10.847656 20.734375 -8.898438 19.484375 -7.171875 C 18.234375 -5.453125 16.222656 -4.179688 13.453125 -3.359375 C 11.929688 -2.898438 10.453125 -2.742188 9.015625 -2.890625 C 7.578125 -3.035156 6.253906 -3.460938 5.046875 -4.171875 C 3.835938 -4.878906 2.769531 -5.832031 1.84375 -7.03125 C 0.925781 -8.226562 0.222656 -9.644531 -0.265625 -11.28125 L -0.5625 -12.3125 C -1.007812 -13.8125 -1.15625 -15.285156 -1 -16.734375 C -0.851562 -18.191406 -0.445312 -19.53125 0.21875 -20.75 C 0.894531 -21.96875 1.789062 -23.03125 2.90625 -23.9375 C 4.03125 -24.851562 5.34375 -25.53125 6.84375 -25.96875 C 8.59375 -26.488281 10.203125 -26.613281 11.671875 -26.34375 C 13.148438 -26.082031 14.4375 -25.597656 15.53125 -24.890625 C 16.632812 -24.179688 17.546875 -23.320312 18.265625 -22.3125 C 18.992188 -21.3125 19.5 -20.335938 19.78125 -19.390625 L 20.59375 -16.625 Z M 7.78125 -22.78125 C 6.832031 -22.5 5.992188 -22.082031 5.265625 -21.53125 C 4.546875 -20.988281 3.957031 -20.351562 3.5 -19.625 C 3.039062 -18.894531 2.722656 -18.101562 2.546875 -17.25 C 2.378906 -16.40625 2.363281 -15.535156 2.5 -14.640625 L 16.296875 -18.734375 C 15.972656 -19.648438 15.503906 -20.421875 14.890625 -21.046875 C 14.285156 -21.679688 13.597656 -22.160156 12.828125 -22.484375 C 12.054688 -22.816406 11.226562 -23.007812 10.34375 -23.0625 C 9.46875 -23.125 8.613281 -23.03125 7.78125 -22.78125 Z M 7.78125 -22.78125 "/></g></g></g><g fill="#ffffff" fill-opacity="1"><g transform="translate(313.036589, 54.990797)"><g/></g></g><g fill="#ffffff" fill-opacity="1"><g transform="translate(338.772391, 49.281961)"><g><path d="M 23.140625 -14.375 C 23.398438 -12.53125 23.332031 -10.859375 22.9375 -9.359375 C 22.539062 -7.859375 21.90625 -6.550781 21.03125 -5.4375 C 20.164062 -4.332031 19.09375 -3.425781 17.8125 -2.71875 C 16.53125 -2.019531 15.164062 -1.566406 13.71875 -1.359375 C 12.226562 -1.140625 10.78125 -1.1875 9.375 -1.5 C 7.96875 -1.8125 6.6875 -2.375 5.53125 -3.1875 C 4.382812 -4.007812 3.398438 -5.082031 2.578125 -6.40625 C 1.765625 -7.726562 1.226562 -9.3125 0.96875 -11.15625 L 0.890625 -11.6875 C 0.617188 -13.5 0.6875 -15.15625 1.09375 -16.65625 C 1.5 -18.15625 2.144531 -19.46875 3.03125 -20.59375 C 3.914062 -21.71875 4.988281 -22.628906 6.25 -23.328125 C 7.507812 -24.035156 8.867188 -24.492188 10.328125 -24.703125 C 11.773438 -24.910156 13.207031 -24.859375 14.625 -24.546875 C 16.039062 -24.242188 17.328125 -23.675781 18.484375 -22.84375 C 19.648438 -22.007812 20.632812 -20.929688 21.4375 -19.609375 C 22.25 -18.285156 22.789062 -16.71875 23.0625 -14.90625 Z M 13.234375 -4.65625 C 14.304688 -4.8125 15.269531 -5.140625 16.125 -5.640625 C 16.976562 -6.140625 17.691406 -6.796875 18.265625 -7.609375 C 18.847656 -8.421875 19.257812 -9.351562 19.5 -10.40625 C 19.738281 -11.457031 19.769531 -12.609375 19.59375 -13.859375 L 19.515625 -14.390625 C 19.335938 -15.578125 18.984375 -16.640625 18.453125 -17.578125 C 17.921875 -18.515625 17.257812 -19.289062 16.46875 -19.90625 C 15.6875 -20.519531 14.804688 -20.957031 13.828125 -21.21875 C 12.847656 -21.488281 11.835938 -21.550781 10.796875 -21.40625 C 9.753906 -21.25 8.800781 -20.90625 7.9375 -20.375 C 7.082031 -19.84375 6.363281 -19.171875 5.78125 -18.359375 C 5.195312 -17.546875 4.785156 -16.613281 4.546875 -15.5625 C 4.316406 -14.507812 4.289062 -13.390625 4.46875 -12.203125 L 4.546875 -11.671875 C 4.722656 -10.421875 5.070312 -9.328125 5.59375 -8.390625 C 6.125 -7.453125 6.785156 -6.675781 7.578125 -6.0625 C 8.367188 -5.445312 9.242188 -5.019531 10.203125 -4.78125 C 11.160156 -4.539062 12.171875 -4.5 13.234375 -4.65625 Z M 13.234375 -4.65625 "/></g></g></g><g fill="#ffffff" fill-opacity="1"><g transform="translate(364.853071, 45.445036)"><g><path d="M 2.0625 -22.515625 L 8.9375 -23.015625 L 8.53125 -28.671875 C 8.457031 -29.691406 8.71875 -30.554688 9.3125 -31.265625 C 9.914062 -31.972656 10.726562 -32.363281 11.75 -32.4375 L 20.53125 -33.078125 L 20.75 -29.84375 L 13.203125 -29.296875 C 12.398438 -29.234375 12.035156 -28.753906 12.109375 -27.859375 L 12.4375 -23.265625 L 21.734375 -23.9375 L 21.96875 -20.71875 L 12.671875 -20.046875 L 14.046875 -1.015625 L 10.546875 -0.765625 L 9.171875 -19.796875 L 2.296875 -19.296875 Z M 2.0625 -22.515625 "/></g></g></g><g fill="#ffffff" fill-opacity="1"><g transform="translate(391.224653, 43.500018)"><g/></g></g><g fill="#ffffff" fill-opacity="1"><g transform="translate(417.503985, 43.457049)"><g><path d="M 6.171875 -31.140625 L 9.9375 -30.875 L 7.921875 -2.953125 L 24.359375 -1.75 L 24.109375 1.75 L 3.90625 0.28125 Z M 6.171875 -31.140625 "/></g></g></g><g fill="#ffffff" fill-opacity="1"><g transform="translate(443.799702, 45.316351)"><g><path d="M 26.265625 -7.1875 C 26.003906 -5.34375 25.46875 -3.757812 24.65625 -2.4375 C 23.84375 -1.113281 22.859375 -0.046875 21.703125 0.765625 C 20.554688 1.585938 19.269531 2.148438 17.84375 2.453125 C 16.414062 2.765625 14.976562 2.816406 13.53125 2.609375 C 12.039062 2.390625 10.664062 1.929688 9.40625 1.234375 C 8.144531 0.535156 7.078125 -0.363281 6.203125 -1.46875 C 5.335938 -2.582031 4.703125 -3.890625 4.296875 -5.390625 C 3.898438 -6.890625 3.832031 -8.5625 4.09375 -10.40625 L 4.171875 -10.9375 C 4.441406 -12.75 4.984375 -14.316406 5.796875 -15.640625 C 6.609375 -16.960938 7.597656 -18.039062 8.765625 -18.875 C 9.929688 -19.707031 11.21875 -20.273438 12.625 -20.578125 C 14.03125 -20.890625 15.460938 -20.941406 16.921875 -20.734375 C 18.367188 -20.523438 19.726562 -20.066406 21 -19.359375 C 22.269531 -18.660156 23.34375 -17.75 24.21875 -16.625 C 25.101562 -15.5 25.742188 -14.1875 26.140625 -12.6875 C 26.546875 -11.1875 26.613281 -9.53125 26.34375 -7.71875 Z M 14.015625 -0.6875 C 15.085938 -0.53125 16.101562 -0.570312 17.0625 -0.8125 C 18.019531 -1.050781 18.890625 -1.476562 19.671875 -2.09375 C 20.460938 -2.707031 21.125 -3.484375 21.65625 -4.421875 C 22.1875 -5.359375 22.539062 -6.453125 22.71875 -7.703125 L 22.796875 -8.234375 C 22.972656 -9.421875 22.941406 -10.539062 22.703125 -11.59375 C 22.460938 -12.644531 22.050781 -13.578125 21.46875 -14.390625 C 20.894531 -15.203125 20.175781 -15.875 19.3125 -16.40625 C 18.445312 -16.945312 17.492188 -17.289062 16.453125 -17.4375 C 15.410156 -17.59375 14.398438 -17.535156 13.421875 -17.265625 C 12.453125 -16.992188 11.570312 -16.550781 10.78125 -15.9375 C 9.988281 -15.320312 9.328125 -14.546875 8.796875 -13.609375 C 8.273438 -12.671875 7.925781 -11.609375 7.75 -10.421875 L 7.671875 -9.890625 C 7.492188 -8.640625 7.519531 -7.488281 7.75 -6.4375 C 7.988281 -5.382812 8.398438 -4.453125 8.984375 -3.640625 C 9.566406 -2.828125 10.285156 -2.171875 11.140625 -1.671875 C 11.992188 -1.171875 12.953125 -0.84375 14.015625 -0.6875 Z M 14.015625 -0.6875 "/></g></g></g><g fill="#ffffff" fill-opacity="1"><g transform="translate(469.892742, 49.068238)"><g><path d="M 21.125 1.140625 L 20.609375 1.03125 C 19.609375 2.195312 18.425781 2.972656 17.0625 3.359375 C 15.707031 3.753906 14.304688 3.789062 12.859375 3.46875 C 11.390625 3.144531 10.066406 2.59375 8.890625 1.8125 C 7.710938 1.03125 6.738281 0.0664062 5.96875 -1.078125 C 5.195312 -2.234375 4.675781 -3.570312 4.40625 -5.09375 C 4.144531 -6.613281 4.210938 -8.265625 4.609375 -10.046875 L 4.75 -10.75 C 5.144531 -12.507812 5.789062 -14.019531 6.6875 -15.28125 C 7.582031 -16.539062 8.613281 -17.539062 9.78125 -18.28125 C 10.957031 -19.019531 12.242188 -19.5 13.640625 -19.71875 C 15.035156 -19.9375 16.441406 -19.890625 17.859375 -19.578125 C 19.441406 -19.234375 20.75 -18.582031 21.78125 -17.625 C 22.820312 -16.664062 23.535156 -15.457031 23.921875 -14 L 24.4375 -13.890625 L 25.1875 -17.3125 L 28.609375 -16.546875 L 22.640625 10.609375 C 22.410156 11.597656 21.910156 12.347656 21.140625 12.859375 C 20.367188 13.367188 19.488281 13.515625 18.5 13.296875 L 4.296875 10.171875 L 5 7 L 17.984375 9.859375 C 18.765625 10.023438 19.25 9.664062 19.4375 8.78125 Z M 13.671875 0.234375 C 14.703125 0.460938 15.695312 0.484375 16.65625 0.296875 C 17.625 0.109375 18.515625 -0.257812 19.328125 -0.8125 C 20.140625 -1.375 20.84375 -2.101562 21.4375 -3 C 22.03125 -3.894531 22.460938 -4.945312 22.734375 -6.15625 L 22.84375 -6.6875 C 23.101562 -7.851562 23.148438 -8.96875 22.984375 -10.03125 C 22.828125 -11.101562 22.492188 -12.0625 21.984375 -12.90625 C 21.484375 -13.75 20.828125 -14.46875 20.015625 -15.0625 C 19.210938 -15.65625 18.3125 -16.066406 17.3125 -16.296875 C 16.28125 -16.515625 15.273438 -16.53125 14.296875 -16.34375 C 13.328125 -16.15625 12.429688 -15.785156 11.609375 -15.234375 C 10.796875 -14.679688 10.097656 -13.957031 9.515625 -13.0625 C 8.941406 -12.164062 8.523438 -11.132812 8.265625 -9.96875 L 8.125 -9.265625 C 7.851562 -8.035156 7.789062 -6.894531 7.9375 -5.84375 C 8.09375 -4.800781 8.425781 -3.863281 8.9375 -3.03125 C 9.445312 -2.195312 10.097656 -1.5 10.890625 -0.9375 C 11.691406 -0.382812 12.617188 0.00390625 13.671875 0.234375 Z M 13.671875 0.234375 "/></g></g></g><g fill="#ffffff" fill-opacity="1"><g transform="translate(495.647031, 54.693143)"><g><path d="M 9.09375 -7.8125 C 8.53125 -5.664062 8.675781 -3.757812 9.53125 -2.09375 C 10.382812 -0.4375 11.921875 0.71875 14.140625 1.375 C 15.148438 1.675781 16.0625 1.820312 16.875 1.8125 C 17.6875 1.8125 18.414062 1.6875 19.0625 1.4375 C 19.71875 1.1875 20.289062 0.847656 20.78125 0.421875 C 21.269531 -0.00390625 21.707031 -0.492188 22.09375 -1.046875 L 25.03125 0.765625 C 23.832031 2.578125 22.238281 3.863281 20.25 4.625 C 18.257812 5.394531 15.878906 5.367188 13.109375 4.546875 C 11.585938 4.085938 10.265625 3.40625 9.140625 2.5 C 8.015625 1.59375 7.140625 0.515625 6.515625 -0.734375 C 5.890625 -1.984375 5.515625 -3.363281 5.390625 -4.875 C 5.273438 -6.382812 5.460938 -7.957031 5.953125 -9.59375 L 6.25 -10.625 C 6.695312 -12.125 7.378906 -13.4375 8.296875 -14.5625 C 9.222656 -15.695312 10.296875 -16.59375 11.515625 -17.25 C 12.742188 -17.90625 14.070312 -18.304688 15.5 -18.453125 C 16.9375 -18.609375 18.40625 -18.46875 19.90625 -18.03125 C 21.65625 -17.507812 23.070312 -16.734375 24.15625 -15.703125 C 25.25 -14.679688 26.0625 -13.570312 26.59375 -12.375 C 27.132812 -11.175781 27.429688 -9.957031 27.484375 -8.71875 C 27.546875 -7.488281 27.4375 -6.398438 27.15625 -5.453125 L 26.34375 -2.6875 Z M 18.96875 -14.84375 C 18.019531 -15.125 17.085938 -15.226562 16.171875 -15.15625 C 15.265625 -15.09375 14.421875 -14.882812 13.640625 -14.53125 C 12.859375 -14.175781 12.160156 -13.6875 11.546875 -13.0625 C 10.941406 -12.445312 10.457031 -11.722656 10.09375 -10.890625 L 23.890625 -6.796875 C 24.109375 -7.734375 24.132812 -8.628906 23.96875 -9.484375 C 23.8125 -10.347656 23.5 -11.128906 23.03125 -11.828125 C 22.5625 -12.535156 21.972656 -13.148438 21.265625 -13.671875 C 20.566406 -14.203125 19.800781 -14.59375 18.96875 -14.84375 Z M 18.96875 -14.84375 "/></g></g></g><g fill="#ffffff" fill-opacity="1"><g transform="translate(520.928276, 62.161747)"><g><path d="M 13.859375 -12.484375 C 13.472656 -11.460938 13.601562 -10.523438 14.25 -9.671875 C 14.90625 -8.816406 16.335938 -7.875 18.546875 -6.84375 C 20.921875 -5.726562 22.5625 -4.445312 23.46875 -3 C 24.382812 -1.550781 24.488281 0.101562 23.78125 1.96875 L 23.6875 2.21875 C 23.3125 3.21875 22.769531 4.039062 22.0625 4.6875 C 21.351562 5.34375 20.53125 5.8125 19.59375 6.09375 C 18.664062 6.382812 17.632812 6.484375 16.5 6.390625 C 15.375 6.296875 14.207031 6.019531 13 5.5625 C 11.363281 4.945312 10.046875 4.203125 9.046875 3.328125 C 8.046875 2.460938 7.296875 1.523438 6.796875 0.515625 C 6.296875 -0.484375 6.019531 -1.507812 5.96875 -2.5625 C 5.914062 -3.625 6.039062 -4.632812 6.34375 -5.59375 L 9.75 -5.171875 C 9.28125 -3.515625 9.410156 -1.992188 10.140625 -0.609375 C 10.867188 0.765625 12.144531 1.796875 13.96875 2.484375 C 15.507812 3.066406 16.863281 3.234375 18.03125 2.984375 C 19.207031 2.742188 20 2.078125 20.40625 0.984375 C 20.851562 -0.191406 20.707031 -1.207031 19.96875 -2.0625 C 19.238281 -2.925781 17.863281 -3.820312 15.84375 -4.75 C 13.488281 -5.820312 11.84375 -7.078125 10.90625 -8.515625 C 9.976562 -9.960938 9.859375 -11.601562 10.546875 -13.4375 L 10.65625 -13.6875 C 11.019531 -14.664062 11.550781 -15.441406 12.25 -16.015625 C 12.957031 -16.597656 13.765625 -17.007812 14.671875 -17.25 C 15.585938 -17.488281 16.539062 -17.5625 17.53125 -17.46875 C 18.519531 -17.382812 19.503906 -17.160156 20.484375 -16.796875 C 21.859375 -16.273438 22.992188 -15.628906 23.890625 -14.859375 C 24.785156 -14.085938 25.46875 -13.265625 25.9375 -12.390625 C 26.414062 -11.523438 26.695312 -10.628906 26.78125 -9.703125 C 26.863281 -8.773438 26.8125 -7.894531 26.625 -7.0625 L 23.21875 -7.484375 C 23.59375 -8.890625 23.453125 -10.144531 22.796875 -11.25 C 22.148438 -12.363281 21.066406 -13.207031 19.546875 -13.78125 C 18.960938 -14 18.367188 -14.148438 17.765625 -14.234375 C 17.160156 -14.316406 16.597656 -14.304688 16.078125 -14.203125 C 15.566406 -14.109375 15.113281 -13.921875 14.71875 -13.640625 C 14.332031 -13.367188 14.046875 -12.984375 13.859375 -12.484375 Z M 13.859375 -12.484375 "/></g></g></g><g fill="#ffffff" fill-opacity="1"><g transform="translate(545.604808, 71.435098)"><g><path d="M 12.234375 -18.921875 L 18.609375 -15.984375 L 22.453125 -24.328125 L 25.640625 -22.84375 L 21.796875 -14.5 L 29.625 -10.875 L 28.265625 -7.9375 L 20.4375 -11.5625 L 14.34375 1.578125 C 13.96875 2.398438 14.144531 2.976562 14.875 3.3125 L 20.625 5.984375 L 19.265625 8.921875 L 12.375 5.734375 C 11.445312 5.296875 10.828125 4.640625 10.515625 3.765625 C 10.210938 2.898438 10.273438 2.003906 10.703125 1.078125 L 17.25 -13.046875 L 10.875 -15.984375 Z M 12.234375 -18.921875 "/></g></g></g><g fill="#ffffff" fill-opacity="1"><g transform="translate(569.547793, 82.464865)"><g><path d="M 23.515625 -20.109375 C 23.941406 -20.867188 24.570312 -21.367188 25.40625 -21.609375 C 26.238281 -21.847656 27.039062 -21.753906 27.8125 -21.328125 C 28.570312 -20.910156 29.070312 -20.285156 29.3125 -19.453125 C 29.550781 -18.617188 29.457031 -17.820312 29.03125 -17.0625 C 28.613281 -16.289062 27.984375 -15.785156 27.140625 -15.546875 C 26.304688 -15.304688 25.507812 -15.394531 24.75 -15.8125 C 23.976562 -16.238281 23.472656 -16.867188 23.234375 -17.703125 C 23.003906 -18.535156 23.097656 -19.335938 23.515625 -20.109375 Z M 5.453125 -0.671875 L 12.3125 3.125 L 19.984375 -10.734375 L 13.84375 -14.140625 L 15.421875 -16.96875 L 24.640625 -11.859375 L 15.390625 4.828125 L 21.75 8.34375 L 20.1875 11.171875 L 3.890625 2.15625 Z M 5.453125 -0.671875 "/></g></g></g><g fill="#ffffff" fill-opacity="1"><g transform="translate(592.63252, 95.193537)"><g><path d="M 25.09375 6.90625 C 24.21875 7.800781 23.25 8.53125 22.1875 9.09375 C 21.125 9.65625 20.003906 10.007812 18.828125 10.15625 C 17.660156 10.3125 16.457031 10.234375 15.21875 9.921875 C 13.988281 9.617188 12.757812 9.066406 11.53125 8.265625 C 10.21875 7.410156 9.117188 6.390625 8.234375 5.203125 C 7.347656 4.015625 6.726562 2.722656 6.375 1.328125 C 6.03125 -0.0546875 5.984375 -1.503906 6.234375 -3.015625 C 6.492188 -4.535156 7.117188 -6.0625 8.109375 -7.59375 L 8.40625 -8.046875 C 9.394531 -9.554688 10.539062 -10.742188 11.84375 -11.609375 C 13.144531 -12.484375 14.503906 -13.046875 15.921875 -13.296875 C 17.335938 -13.546875 18.773438 -13.519531 20.234375 -13.21875 C 21.703125 -12.925781 23.09375 -12.351562 24.40625 -11.5 C 25.59375 -10.71875 26.570312 -9.820312 27.34375 -8.8125 C 28.113281 -7.8125 28.675781 -6.738281 29.03125 -5.59375 C 29.382812 -4.457031 29.519531 -3.285156 29.4375 -2.078125 C 29.351562 -0.878906 29.0625 0.285156 28.5625 1.421875 L 25.171875 0.1875 C 25.523438 -0.519531 25.757812 -1.273438 25.875 -2.078125 C 25.988281 -2.878906 25.945312 -3.671875 25.75 -4.453125 C 25.5625 -5.242188 25.207031 -6.003906 24.6875 -6.734375 C 24.164062 -7.460938 23.441406 -8.132812 22.515625 -8.75 C 21.609375 -9.332031 20.644531 -9.710938 19.625 -9.890625 C 18.613281 -10.078125 17.601562 -10.054688 16.59375 -9.828125 C 15.59375 -9.609375 14.644531 -9.179688 13.75 -8.546875 C 12.851562 -7.910156 12.078125 -7.09375 11.421875 -6.09375 L 11.125 -5.640625 C 10.4375 -4.578125 9.988281 -3.515625 9.78125 -2.453125 C 9.570312 -1.390625 9.582031 -0.375 9.8125 0.59375 C 10.039062 1.5625 10.453125 2.460938 11.046875 3.296875 C 11.648438 4.140625 12.414062 4.863281 13.34375 5.46875 C 14.269531 6.082031 15.175781 6.46875 16.0625 6.625 C 16.945312 6.789062 17.785156 6.796875 18.578125 6.640625 C 19.367188 6.492188 20.101562 6.21875 20.78125 5.8125 C 21.46875 5.40625 22.070312 4.90625 22.59375 4.3125 Z M 25.09375 6.90625 "/></g></g></g><g fill="#ffffff" fill-opacity="1"><g transform="translate(614.738519, 109.554767)"><g><path d="M 16.8125 -8.015625 C 16.164062 -7.148438 16.035156 -6.210938 16.421875 -5.203125 C 16.816406 -4.191406 17.921875 -2.878906 19.734375 -1.265625 C 21.691406 0.472656 22.898438 2.164062 23.359375 3.8125 C 23.816406 5.46875 23.441406 7.085938 22.234375 8.671875 L 22.078125 8.875 C 21.429688 9.726562 20.675781 10.363281 19.8125 10.78125 C 18.945312 11.207031 18.023438 11.425781 17.046875 11.4375 C 16.078125 11.445312 15.0625 11.242188 14 10.828125 C 12.9375 10.421875 11.894531 9.828125 10.875 9.046875 C 9.488281 7.992188 8.4375 6.90625 7.71875 5.78125 C 7.007812 4.65625 6.5625 3.539062 6.375 2.4375 C 6.1875 1.332031 6.21875 0.265625 6.46875 -0.765625 C 6.71875 -1.796875 7.113281 -2.726562 7.65625 -3.5625 L 10.828125 -2.171875 C 9.898438 -0.722656 9.585938 0.765625 9.890625 2.296875 C 10.203125 3.828125 11.132812 5.179688 12.6875 6.359375 C 14 7.359375 15.25 7.90625 16.4375 8 C 17.625 8.09375 18.570312 7.675781 19.28125 6.75 C 20.039062 5.75 20.191406 4.734375 19.734375 3.703125 C 19.273438 2.671875 18.210938 1.425781 16.546875 -0.03125 C 14.585938 -1.738281 13.363281 -3.414062 12.875 -5.0625 C 12.394531 -6.71875 12.75 -8.320312 13.9375 -9.875 L 14.09375 -10.09375 C 14.738281 -10.925781 15.476562 -11.519531 16.3125 -11.875 C 17.15625 -12.226562 18.046875 -12.390625 18.984375 -12.359375 C 19.921875 -12.328125 20.851562 -12.128906 21.78125 -11.765625 C 22.707031 -11.398438 23.585938 -10.894531 24.421875 -10.25 C 25.597656 -9.363281 26.503906 -8.421875 27.140625 -7.421875 C 27.773438 -6.429688 28.195312 -5.453125 28.40625 -4.484375 C 28.613281 -3.523438 28.625 -2.585938 28.4375 -1.671875 C 28.25 -0.753906 27.945312 0.0703125 27.53125 0.8125 L 24.390625 -0.5625 C 25.148438 -1.800781 25.375 -3.046875 25.0625 -4.296875 C 24.75 -5.546875 23.945312 -6.664062 22.65625 -7.65625 C 22.15625 -8.03125 21.628906 -8.335938 21.078125 -8.578125 C 20.523438 -8.828125 19.988281 -8.984375 19.46875 -9.046875 C 18.957031 -9.109375 18.46875 -9.054688 18 -8.890625 C 17.539062 -8.734375 17.144531 -8.441406 16.8125 -8.015625 Z M 16.8125 -8.015625 "/></g></g></g><g fill="#ffffff" fill-opacity="1"><g transform="translate(635.750732, 125.473665)"><g/></g></g><g fill="#ffffff" fill-opacity="1"><g transform="translate(655.559473, 142.867248)"><g><path d="M 5.203125 5.296875 L 2.75 2.796875 L 18.671875 -12.84375 L 21.125 -10.34375 L 18.4375 -7.703125 L 18.8125 -7.3125 C 21.875 -8.382812 24.601562 -7.695312 27 -5.25 C 28.800781 -3.414062 29.664062 -1.394531 29.59375 0.8125 C 29.519531 3.03125 28.335938 5.269531 26.046875 7.53125 L 16.546875 16.859375 L 14.09375 14.34375 L 23.078125 5.515625 C 24.753906 3.878906 25.640625 2.273438 25.734375 0.703125 C 25.835938 -0.859375 25.257812 -2.285156 24 -3.578125 C 22.5 -5.097656 20.800781 -5.78125 18.90625 -5.625 C 17.019531 -5.46875 15.210938 -4.539062 13.484375 -2.84375 Z M 5.203125 5.296875 "/></g></g></g><g fill="#ffffff" fill-opacity="1"><g transform="translate(674.061482, 161.644829)"><g><path d="M 11.890625 -1.59375 C 10.242188 -0.09375 9.320312 1.582031 9.125 3.4375 C 8.9375 5.300781 9.59375 7.117188 11.09375 8.890625 C 11.78125 9.691406 12.460938 10.304688 13.140625 10.734375 C 13.828125 11.171875 14.507812 11.46875 15.1875 11.625 C 15.875 11.78125 16.535156 11.804688 17.171875 11.703125 C 17.816406 11.609375 18.453125 11.4375 19.078125 11.1875 L 20.546875 14.3125 C 18.554688 15.175781 16.519531 15.382812 14.4375 14.9375 C 12.351562 14.488281 10.375 13.164062 8.5 10.96875 C 7.46875 9.75 6.726562 8.453125 6.28125 7.078125 C 5.832031 5.703125 5.6875 4.316406 5.84375 2.921875 C 6.007812 1.535156 6.453125 0.179688 7.171875 -1.140625 C 7.898438 -2.460938 8.914062 -3.675781 10.21875 -4.78125 L 11.046875 -5.484375 C 12.234375 -6.492188 13.519531 -7.222656 14.90625 -7.671875 C 16.300781 -8.128906 17.6875 -8.296875 19.0625 -8.171875 C 20.445312 -8.046875 21.785156 -7.65625 23.078125 -7 C 24.367188 -6.34375 25.519531 -5.414062 26.53125 -4.21875 C 27.707031 -2.832031 28.472656 -1.410156 28.828125 0.046875 C 29.179688 1.503906 29.253906 2.878906 29.046875 4.171875 C 28.847656 5.460938 28.429688 6.640625 27.796875 7.703125 C 27.160156 8.773438 26.46875 9.628906 25.71875 10.265625 L 23.53125 12.125 Z M 23.984375 -2.0625 C 23.347656 -2.820312 22.628906 -3.425781 21.828125 -3.875 C 21.035156 -4.320312 20.210938 -4.601562 19.359375 -4.71875 C 18.515625 -4.84375 17.671875 -4.8125 16.828125 -4.625 C 15.984375 -4.445312 15.171875 -4.113281 14.390625 -3.625 L 23.71875 7.359375 C 24.414062 6.679688 24.929688 5.941406 25.265625 5.140625 C 25.597656 4.335938 25.757812 3.507812 25.75 2.65625 C 25.75 1.8125 25.59375 0.976562 25.28125 0.15625 C 24.976562 -0.664062 24.546875 -1.40625 23.984375 -2.0625 Z M 23.984375 -2.0625 "/></g></g></g><g fill="#ffffff" fill-opacity="1"><g transform="translate(691.160399, 181.70853)"><g><path d="M 13.71875 18.734375 L 9.890625 13.5 L 25 -0.90625 L 24.671875 -1.34375 L 6.375 8.71875 L 2.546875 3.484375 L 18.484375 -12.53125 L 20.609375 -9.625 L 5.671875 5 L 5.984375 5.4375 L 24.21875 -4.6875 L 28.046875 0.546875 L 12.90625 14.875 L 13.21875 15.3125 L 31.65625 5.46875 L 33.796875 8.390625 Z M 13.71875 18.734375 "/></g></g></g><g fill="#ffffff" fill-opacity="1"><g transform="translate(706.766937, 202.953723)"><g><path d="M 18.5625 -1.546875 C 17.644531 -0.972656 17.191406 -0.148438 17.203125 0.921875 C 17.210938 2.003906 17.78125 3.625 18.90625 5.78125 C 20.125 8.101562 20.65625 10.117188 20.5 11.828125 C 20.351562 13.535156 19.4375 14.914062 17.75 15.96875 L 17.53125 16.109375 C 16.613281 16.679688 15.671875 17.007812 14.703125 17.09375 C 13.742188 17.175781 12.804688 17.050781 11.890625 16.71875 C 10.984375 16.382812 10.109375 15.835938 9.265625 15.078125 C 8.421875 14.316406 7.65625 13.390625 6.96875 12.296875 C 6.039062 10.828125 5.441406 9.441406 5.171875 8.140625 C 4.910156 6.835938 4.882812 5.632812 5.09375 4.53125 C 5.3125 3.425781 5.722656 2.4375 6.328125 1.5625 C 6.929688 0.6875 7.628906 -0.0390625 8.421875 -0.625 L 10.890625 1.796875 C 9.515625 2.828125 8.703125 4.109375 8.453125 5.640625 C 8.203125 7.179688 8.59375 8.78125 9.625 10.4375 C 10.5 11.832031 11.472656 12.78125 12.546875 13.28125 C 13.628906 13.789062 14.664062 13.738281 15.65625 13.125 C 16.71875 12.457031 17.21875 11.5625 17.15625 10.4375 C 17.09375 9.3125 16.535156 7.769531 15.484375 5.8125 C 14.265625 3.53125 13.71875 1.535156 13.84375 -0.171875 C 13.976562 -1.890625 14.875 -3.269531 16.53125 -4.3125 L 16.75 -4.453125 C 17.644531 -5.003906 18.546875 -5.296875 19.453125 -5.328125 C 20.367188 -5.367188 21.257812 -5.207031 22.125 -4.84375 C 22.988281 -4.488281 23.789062 -3.976562 24.53125 -3.3125 C 25.269531 -2.644531 25.921875 -1.863281 26.484375 -0.96875 C 27.265625 0.269531 27.773438 1.46875 28.015625 2.625 C 28.265625 3.78125 28.3125 4.847656 28.15625 5.828125 C 28.007812 6.804688 27.6875 7.691406 27.1875 8.484375 C 26.695312 9.273438 26.125 9.941406 25.46875 10.484375 L 23.015625 8.09375 C 24.160156 7.207031 24.804688 6.117188 24.953125 4.828125 C 25.109375 3.546875 24.757812 2.21875 23.90625 0.84375 C 23.570312 0.3125 23.191406 -0.164062 22.765625 -0.59375 C 22.335938 -1.019531 21.890625 -1.347656 21.421875 -1.578125 C 20.953125 -1.804688 20.472656 -1.925781 19.984375 -1.9375 C 19.492188 -1.957031 19.019531 -1.828125 18.5625 -1.546875 Z M 18.5625 -1.546875 "/></g></g></g><g fill="#ffffff" fill-opacity="1"><g transform="translate(733.489233, 560.381991)"><g><path d="M 25.96875 18.25 L 16.53125 36.0625 L 11.515625 33.40625 L 18.171875 20.84375 L 11.8125 17.46875 L 5.28125 29.78125 L 0.265625 27.125 L 6.796875 14.8125 L -4.640625 8.75 L -1.859375 3.5 Z M 25.96875 18.25 "/></g></g></g><g fill="#ffffff" fill-opacity="1"><g transform="translate(721.179128, 583.692605)"><g><path d="M 17.609375 13.90625 L 12.59375 21.90625 L 9.859375 20.1875 L 9.4375 20.875 C 10.257812 21.882812 10.6875 22.992188 10.71875 24.203125 C 10.757812 25.421875 10.40625 26.628906 9.65625 27.828125 C 8.476562 29.703125 6.9375 30.84375 5.03125 31.25 C 3.132812 31.65625 0.976562 31.097656 -1.4375 29.578125 L -2.28125 29.0625 L 0.359375 23.8125 L 0.90625 24.15625 C 1.945312 24.8125 2.945312 25.0625 3.90625 24.90625 C 4.863281 24.757812 5.675781 24.15625 6.34375 23.09375 C 7.019531 22.019531 7.175781 20.945312 6.8125 19.875 C 6.457031 18.8125 5.59375 17.847656 4.21875 16.984375 L -1.875 13.171875 L -4.59375 17.515625 L -9.171875 14.640625 L -1 1.609375 L 3.578125 4.484375 L 1.140625 8.375 L 10.90625 14.484375 L 13.046875 11.046875 Z M 17.609375 13.90625 "/></g></g></g><g fill="#ffffff" fill-opacity="1"><g transform="translate(707.219062, 606.054117)"><g><path d="M -6.203125 26.90625 C -7.703125 25.800781 -8.835938 24.578125 -9.609375 23.234375 C -10.390625 21.890625 -10.851562 20.492188 -11 19.046875 C -11.15625 17.597656 -11.023438 16.15625 -10.609375 14.71875 C -10.191406 13.289062 -9.53125 11.960938 -8.625 10.734375 C -7.726562 9.492188 -6.660156 8.460938 -5.421875 7.640625 C -4.191406 6.828125 -2.863281 6.269531 -1.4375 5.96875 C -0.0078125 5.675781 1.457031 5.691406 2.96875 6.015625 C 4.488281 6.347656 6 7.066406 7.5 8.171875 L 7.953125 8.484375 C 9.421875 9.566406 10.546875 10.785156 11.328125 12.140625 C 12.109375 13.492188 12.578125 14.898438 12.734375 16.359375 C 12.890625 17.816406 12.757812 19.253906 12.34375 20.671875 C 11.9375 22.097656 11.285156 23.429688 10.390625 24.671875 C 9.484375 25.898438 8.410156 26.925781 7.171875 27.75 C 5.929688 28.582031 4.59375 29.140625 3.15625 29.421875 C 1.726562 29.710938 0.253906 29.6875 -1.265625 29.34375 C -2.785156 29.007812 -4.28125 28.300781 -5.75 27.21875 Z M -4.28125 13.921875 C -4.757812 14.578125 -5.101562 15.273438 -5.3125 16.015625 C -5.519531 16.753906 -5.578125 17.492188 -5.484375 18.234375 C -5.390625 18.972656 -5.140625 19.679688 -4.734375 20.359375 C -4.328125 21.046875 -3.75 21.664062 -3 22.21875 L -2.265625 22.75 C -1.523438 23.289062 -0.765625 23.65625 0.015625 23.84375 C 0.796875 24.03125 1.550781 24.054688 2.28125 23.921875 C 3.007812 23.785156 3.695312 23.503906 4.34375 23.078125 C 4.988281 22.660156 5.550781 22.125 6.03125 21.46875 C 6.5 20.820312 6.835938 20.128906 7.046875 19.390625 C 7.253906 18.648438 7.3125 17.910156 7.21875 17.171875 C 7.125 16.429688 6.875 15.710938 6.46875 15.015625 C 6.0625 14.328125 5.488281 13.710938 4.75 13.171875 L 4.015625 12.640625 C 3.265625 12.085938 2.5 11.722656 1.71875 11.546875 C 0.9375 11.367188 0.179688 11.347656 -0.546875 11.484375 C -1.273438 11.617188 -1.960938 11.894531 -2.609375 12.3125 C -3.253906 12.738281 -3.8125 13.273438 -4.28125 13.921875 Z M -4.28125 13.921875 "/></g></g></g><g fill="#ffffff" fill-opacity="1"><g transform="translate(691.681849, 627.350121)"><g><path d="M -16.78125 19.75 L -13.109375 15.4375 L -1.171875 25.578125 C -0.691406 25.984375 -0.234375 26.164062 0.203125 26.125 C 0.648438 26.09375 1.039062 25.882812 1.375 25.5 C 1.757812 25.03125 1.925781 24.546875 1.875 24.046875 C 1.820312 23.554688 1.523438 23.082031 0.984375 22.625 L -10.75 12.65625 L -7.078125 8.34375 L 4.859375 18.484375 C 5.335938 18.890625 5.804688 19.0625 6.265625 19 C 6.734375 18.9375 7.117188 18.722656 7.421875 18.359375 C 7.773438 17.953125 7.929688 17.492188 7.890625 16.984375 C 7.847656 16.472656 7.554688 15.988281 7.015625 15.53125 L -4.71875 5.5625 L -1.046875 1.234375 L 15.953125 15.671875 L 12.28125 20 L 10.640625 18.609375 L 10.125 19.21875 C 10.625 19.894531 10.863281 20.644531 10.84375 21.46875 C 10.832031 22.300781 10.488281 23.113281 9.8125 23.90625 C 9.164062 24.664062 8.414062 25.140625 7.5625 25.328125 C 6.71875 25.515625 5.90625 25.4375 5.125 25.09375 L 4.609375 25.703125 C 5.078125 26.421875 5.265625 27.238281 5.171875 28.15625 C 5.078125 29.082031 4.660156 29.976562 3.921875 30.84375 C 2.953125 31.988281 1.789062 32.578125 0.4375 32.609375 C -0.914062 32.640625 -2.265625 32.082031 -3.609375 30.9375 Z M -16.78125 19.75 "/></g></g></g><g fill="#ffffff" fill-opacity="1"><g transform="translate(674.648448, 647.46949)"><g/></g></g><g fill="#ffffff" fill-opacity="1"><g transform="translate(656.207755, 666.307216)"><g><path d="M 12.59375 18.65625 L 7.625 23.03125 L 13.703125 29.921875 L 9.4375 33.671875 L 3.359375 26.78125 L -2.671875 32.09375 L -6.234375 28.046875 L -0.203125 22.734375 L -6.921875 15.09375 C -7.515625 14.425781 -8.109375 14.359375 -8.703125 14.890625 L -13.234375 18.875 L -16.8125 14.8125 L -9.71875 8.5625 C -8.957031 7.894531 -8.113281 7.59375 -7.1875 7.65625 C -6.269531 7.726562 -5.472656 8.148438 -4.796875 8.921875 L 4.0625 18.984375 L 9.03125 14.609375 Z M 12.59375 18.65625 "/></g></g></g><g fill="#ffffff" fill-opacity="1"><g transform="translate(636.455806, 683.765329)"><g><path d="M -7.375 5.609375 L -2.859375 2.171875 L 16.203125 27.25 L 11.6875 30.6875 L 3.953125 20.515625 L 3.3125 21 C 3.675781 22.425781 3.632812 23.765625 3.1875 25.015625 C 2.75 26.273438 1.890625 27.390625 0.609375 28.359375 C -0.273438 29.035156 -1.195312 29.515625 -2.15625 29.796875 C -3.125 30.078125 -4.097656 30.132812 -5.078125 29.96875 C -6.066406 29.8125 -7.054688 29.40625 -8.046875 28.75 C -9.046875 28.09375 -10.003906 27.160156 -10.921875 25.953125 L -19.421875 14.765625 L -14.90625 11.328125 L -7.234375 21.421875 C -6.265625 22.691406 -5.195312 23.457031 -4.03125 23.71875 C -2.875 23.988281 -1.722656 23.691406 -0.578125 22.828125 C 0.753906 21.804688 1.410156 20.597656 1.390625 19.203125 C 1.367188 17.804688 0.789062 16.351562 -0.34375 14.84375 Z M -7.375 5.609375 "/></g></g></g><g fill="#ffffff" fill-opacity="1"><g transform="translate(615.495639, 699.752624)"><g><path d="M -2.03125 12.4375 C -2.414062 11.90625 -2.878906 11.484375 -3.421875 11.171875 C -3.960938 10.867188 -4.550781 10.679688 -5.1875 10.609375 C -5.832031 10.546875 -6.484375 10.59375 -7.140625 10.75 C -7.804688 10.90625 -8.441406 11.179688 -9.046875 11.578125 C -10.222656 12.347656 -10.988281 13.144531 -11.34375 13.96875 C -11.707031 14.789062 -11.835938 15.585938 -11.734375 16.359375 L -17.28125 16.75 C -17.363281 16.125 -17.375 15.421875 -17.3125 14.640625 C -17.25 13.859375 -17.035156 13.046875 -16.671875 12.203125 C -16.304688 11.359375 -15.753906 10.5 -15.015625 9.625 C -14.285156 8.75 -13.304688 7.910156 -12.078125 7.109375 C -10.660156 6.191406 -9.226562 5.582031 -7.78125 5.28125 C -6.332031 4.976562 -4.90625 4.976562 -3.5 5.28125 C -2.101562 5.59375 -0.773438 6.210938 0.484375 7.140625 C 1.753906 8.066406 2.898438 9.3125 3.921875 10.875 L 4.078125 11.09375 C 5.003906 12.53125 5.609375 14 5.890625 15.5 C 6.171875 17 6.15625 18.441406 5.84375 19.828125 C 5.53125 21.210938 4.953125 22.507812 4.109375 23.71875 C 3.265625 24.9375 2.1875 25.972656 0.875 26.828125 C -0.726562 27.878906 -2.289062 28.492188 -3.8125 28.671875 C -5.34375 28.859375 -6.765625 28.765625 -8.078125 28.390625 C -9.398438 28.015625 -10.578125 27.421875 -11.609375 26.609375 C -12.640625 25.796875 -13.472656 24.898438 -14.109375 23.921875 L -15.75 21.390625 Z M -1.875 22.484375 C -0.664062 21.703125 0.109375 20.757812 0.453125 19.65625 C 0.804688 18.550781 0.832031 17.519531 0.53125 16.5625 L -8.28125 22.3125 C -7.550781 23.09375 -6.601562 23.515625 -5.4375 23.578125 C -4.269531 23.640625 -3.082031 23.273438 -1.875 22.484375 Z M -1.875 22.484375 "/></g></g></g><g fill="#ffffff" fill-opacity="1"><g transform="translate(593.436456, 714.185858)"><g/></g></g><g fill="#ffffff" fill-opacity="1"><g transform="translate(570.393423, 726.989743)"><g><path d="M -7.46875 3.453125 L -2.328125 1.078125 L 10.890625 29.671875 L 5.75 32.046875 L 0.546875 20.765625 L -0.1875 21.109375 C -0.21875 22.472656 -0.609375 23.703125 -1.359375 24.796875 C -2.109375 25.890625 -3.285156 26.804688 -4.890625 27.546875 C -6.097656 28.109375 -7.34375 28.40625 -8.625 28.4375 C -9.914062 28.46875 -11.164062 28.226562 -12.375 27.71875 C -13.59375 27.207031 -14.734375 26.421875 -15.796875 25.359375 C -16.867188 24.304688 -17.78125 22.960938 -18.53125 21.328125 L -18.875 20.578125 C -19.644531 18.929688 -20.09375 17.359375 -20.21875 15.859375 C -20.351562 14.367188 -20.226562 13 -19.84375 11.75 C -19.46875 10.5 -18.847656 9.398438 -17.984375 8.453125 C -17.117188 7.503906 -16.054688 6.738281 -14.796875 6.15625 C -13.867188 5.726562 -13.019531 5.453125 -12.25 5.328125 C -11.488281 5.203125 -10.78125 5.1875 -10.125 5.28125 C -9.46875 5.375 -8.875 5.550781 -8.34375 5.8125 C -7.8125 6.070312 -7.3125 6.378906 -6.84375 6.734375 L -6.109375 6.390625 Z M -10.859375 10.28125 C -12.460938 11.019531 -13.53125 12.113281 -14.0625 13.5625 C -14.59375 15.019531 -14.460938 16.609375 -13.671875 18.328125 L -13.453125 18.8125 C -12.660156 20.53125 -11.535156 21.65625 -10.078125 22.1875 C -8.617188 22.71875 -7.085938 22.613281 -5.484375 21.875 C -3.878906 21.125 -2.816406 20.007812 -2.296875 18.53125 C -1.773438 17.050781 -1.898438 15.484375 -2.671875 13.828125 L -2.890625 13.34375 C -3.660156 11.675781 -4.78125 10.5625 -6.25 10 C -7.71875 9.4375 -9.253906 9.53125 -10.859375 10.28125 Z M -10.859375 10.28125 "/></g></g></g><g fill="#ffffff" fill-opacity="1"><g transform="translate(546.48645, 738.097498)"><g><path d="M -4.65625 11.71875 C -4.925781 11.113281 -5.289062 10.601562 -5.75 10.1875 C -6.207031 9.769531 -6.738281 9.457031 -7.34375 9.25 C -7.957031 9.039062 -8.601562 8.941406 -9.28125 8.953125 C -9.96875 8.972656 -10.648438 9.109375 -11.328125 9.359375 C -12.640625 9.859375 -13.5625 10.472656 -14.09375 11.203125 C -14.625 11.929688 -14.921875 12.679688 -14.984375 13.453125 L -20.46875 12.640625 C -20.425781 12.015625 -20.285156 11.328125 -20.046875 10.578125 C -19.816406 9.835938 -19.4375 9.09375 -18.90625 8.34375 C -18.375 7.601562 -17.648438 6.882812 -16.734375 6.1875 C -15.828125 5.488281 -14.6875 4.882812 -13.3125 4.375 C -11.738281 3.769531 -10.210938 3.472656 -8.734375 3.484375 C -7.253906 3.503906 -5.859375 3.8125 -4.546875 4.40625 C -3.242188 5.007812 -2.078125 5.898438 -1.046875 7.078125 C -0.015625 8.253906 0.828125 9.71875 1.484375 11.46875 L 1.578125 11.703125 C 2.179688 13.304688 2.457031 14.867188 2.40625 16.390625 C 2.363281 17.921875 2.039062 19.328125 1.4375 20.609375 C 0.832031 21.898438 -0.00390625 23.046875 -1.078125 24.046875 C -2.160156 25.046875 -3.4375 25.820312 -4.90625 26.375 C -6.695312 27.050781 -8.359375 27.316406 -9.890625 27.171875 C -11.421875 27.035156 -12.785156 26.640625 -13.984375 25.984375 C -15.191406 25.328125 -16.210938 24.492188 -17.046875 23.484375 C -17.890625 22.472656 -18.515625 21.421875 -18.921875 20.328125 L -19.984375 17.515625 Z M -6.671875 21.546875 C -5.328125 21.046875 -4.363281 20.296875 -3.78125 19.296875 C -3.195312 18.296875 -2.953125 17.289062 -3.046875 16.28125 L -12.890625 20 C -12.347656 20.925781 -11.507812 21.539062 -10.375 21.84375 C -9.25 22.15625 -8.015625 22.054688 -6.671875 21.546875 Z M -6.671875 21.546875 "/></g></g></g><g fill="#ffffff" fill-opacity="1"><g transform="translate(521.840365, 747.451241)"><g><path d="M -5.625 18.390625 C -5.832031 17.691406 -6.335938 17.300781 -7.140625 17.21875 C -7.953125 17.132812 -9.332031 17.273438 -11.28125 17.640625 C -13.539062 18.046875 -15.519531 17.914062 -17.21875 17.25 C -18.914062 16.582031 -20.050781 15.289062 -20.625 13.375 L -20.703125 13.09375 C -21.328125 10.96875 -21.050781 9.039062 -19.875 7.3125 C -18.695312 5.59375 -16.703125 4.316406 -13.890625 3.484375 C -12.222656 2.984375 -10.738281 2.769531 -9.4375 2.84375 C -8.132812 2.925781 -6.992188 3.175781 -6.015625 3.59375 C -5.046875 4.019531 -4.238281 4.5625 -3.59375 5.21875 C -2.945312 5.882812 -2.429688 6.570312 -2.046875 7.28125 L -6.5625 10.40625 C -7.070312 9.539062 -7.796875 8.875 -8.734375 8.40625 C -9.671875 7.9375 -10.90625 7.929688 -12.4375 8.390625 C -13.78125 8.785156 -14.640625 9.269531 -15.015625 9.84375 C -15.398438 10.414062 -15.519531 10.941406 -15.375 11.421875 C -15.289062 11.703125 -15.144531 11.945312 -14.9375 12.15625 C -14.738281 12.363281 -14.4375 12.523438 -14.03125 12.640625 C -13.625 12.753906 -13.101562 12.789062 -12.46875 12.75 C -11.84375 12.71875 -11.070312 12.617188 -10.15625 12.453125 C -7.675781 11.929688 -5.570312 11.984375 -3.84375 12.609375 C -2.113281 13.234375 -0.941406 14.570312 -0.328125 16.625 L -0.25 16.875 C 0.0625 17.945312 0.109375 18.953125 -0.109375 19.890625 C -0.328125 20.828125 -0.722656 21.6875 -1.296875 22.46875 C -1.878906 23.257812 -2.617188 23.941406 -3.515625 24.515625 C -4.410156 25.085938 -5.375 25.53125 -6.40625 25.84375 C -7.757812 26.25 -8.976562 26.429688 -10.0625 26.390625 C -11.144531 26.359375 -12.113281 26.175781 -12.96875 25.84375 C -13.820312 25.519531 -14.5625 25.097656 -15.1875 24.578125 C -15.8125 24.054688 -16.328125 23.53125 -16.734375 23 L -12.40625 19.546875 C -11.925781 20.242188 -11.300781 20.722656 -10.53125 20.984375 C -9.757812 21.242188 -8.867188 21.222656 -7.859375 20.921875 C -6.941406 20.648438 -6.300781 20.28125 -5.9375 19.8125 C -5.582031 19.34375 -5.476562 18.867188 -5.625 18.390625 Z M -5.625 18.390625 "/></g></g></g><g fill="#ffffff" fill-opacity="1"><g transform="translate(496.583597, 755.002172)"><g><path d="M 1.984375 22.421875 L -4.484375 23.84375 L -2.515625 32.8125 L -8.046875 34.03125 L -10.015625 25.0625 L -17.875 26.78125 L -19.03125 21.515625 L -11.171875 19.796875 L -13.359375 9.859375 C -13.554688 8.984375 -14.046875 8.628906 -14.828125 8.796875 L -20.71875 10.09375 L -21.875 4.8125 L -12.65625 2.78125 C -11.664062 2.5625 -10.785156 2.707031 -10.015625 3.21875 C -9.242188 3.726562 -8.75 4.484375 -8.53125 5.484375 L -5.640625 18.578125 L 0.828125 17.15625 Z M 1.984375 22.421875 "/></g></g></g><g fill="#ffffff" fill-opacity="1"><g transform="translate(470.847749, 760.710972)"><g/></g></g><g fill="#ffffff" fill-opacity="1"><g transform="translate(444.767095, 764.547934)"><g><path d="M -1.40625 31.6875 L -7.328125 32.109375 L -9.1875 6.34375 L -23.46875 7.390625 L -23.875 1.734375 L -3.671875 0.265625 Z M -1.40625 31.6875 "/></g></g></g><g fill="#ffffff" fill-opacity="1"><g transform="translate(418.770511, 766.492997)"><g><path d="M -25.375 10.890625 C -25.375 9.023438 -25.054688 7.378906 -24.421875 5.953125 C -23.796875 4.535156 -22.941406 3.335938 -21.859375 2.359375 C -20.785156 1.390625 -19.550781 0.648438 -18.15625 0.140625 C -16.757812 -0.367188 -15.296875 -0.625 -13.765625 -0.625 C -12.234375 -0.625 -10.769531 -0.367188 -9.375 0.140625 C -7.988281 0.648438 -6.753906 1.390625 -5.671875 2.359375 C -4.585938 3.335938 -3.726562 4.535156 -3.09375 5.953125 C -2.46875 7.378906 -2.15625 9.023438 -2.15625 10.890625 L -2.15625 11.4375 C -2.15625 13.257812 -2.46875 14.882812 -3.09375 16.3125 C -3.726562 17.738281 -4.585938 18.945312 -5.671875 19.9375 C -6.753906 20.925781 -7.988281 21.675781 -9.375 22.1875 C -10.769531 22.695312 -12.234375 22.953125 -13.765625 22.953125 C -15.296875 22.953125 -16.757812 22.695312 -18.15625 22.1875 C -19.550781 21.675781 -20.785156 20.925781 -21.859375 19.9375 C -22.941406 18.945312 -23.796875 17.738281 -24.421875 16.3125 C -25.054688 14.882812 -25.375 13.257812 -25.375 11.4375 Z M -13.765625 4.765625 C -14.578125 4.765625 -15.34375 4.898438 -16.0625 5.171875 C -16.78125 5.441406 -17.410156 5.832031 -17.953125 6.34375 C -18.492188 6.851562 -18.921875 7.472656 -19.234375 8.203125 C -19.546875 8.941406 -19.703125 9.773438 -19.703125 10.703125 L -19.703125 11.609375 C -19.703125 12.535156 -19.546875 13.363281 -19.234375 14.09375 C -18.921875 14.832031 -18.492188 15.457031 -17.953125 15.96875 C -17.410156 16.476562 -16.78125 16.867188 -16.0625 17.140625 C -15.34375 17.410156 -14.578125 17.546875 -13.765625 17.546875 C -12.960938 17.546875 -12.195312 17.410156 -11.46875 17.140625 C -10.75 16.867188 -10.117188 16.476562 -9.578125 15.96875 C -9.046875 15.457031 -8.617188 14.832031 -8.296875 14.09375 C -7.984375 13.363281 -7.828125 12.535156 -7.828125 11.609375 L -7.828125 10.703125 C -7.828125 9.773438 -7.984375 8.941406 -8.296875 8.203125 C -8.617188 7.472656 -9.046875 6.851562 -9.578125 6.34375 C -10.117188 5.832031 -10.75 5.441406 -11.46875 5.171875 C -12.195312 4.898438 -12.960938 4.765625 -13.765625 4.765625 Z M -13.765625 4.765625 "/></g></g></g><g fill="#ffffff" fill-opacity="1"><g transform="translate(392.116215, 766.535902)"><g><path d="M -19.625 1.8125 L -18.8125 1.875 C -18.53125 1.394531 -18.203125 0.929688 -17.828125 0.484375 C -17.453125 0.046875 -16.972656 -0.328125 -16.390625 -0.640625 C -15.804688 -0.960938 -15.128906 -1.195312 -14.359375 -1.34375 C -13.585938 -1.5 -12.660156 -1.539062 -11.578125 -1.46875 C -10.191406 -1.363281 -8.925781 -1.019531 -7.78125 -0.4375 C -6.644531 0.132812 -5.664062 0.9375 -4.84375 1.96875 C -4.03125 3 -3.429688 4.238281 -3.046875 5.6875 C -2.660156 7.132812 -2.535156 8.765625 -2.671875 10.578125 L -2.71875 11.390625 C -2.851562 13.191406 -3.226562 14.773438 -3.84375 16.140625 C -4.46875 17.515625 -5.269531 18.648438 -6.25 19.546875 C -7.238281 20.453125 -8.359375 21.113281 -9.609375 21.53125 C -10.859375 21.957031 -12.15625 22.125 -13.5 22.03125 C -15.300781 21.90625 -16.703125 21.46875 -17.703125 20.71875 C -18.703125 19.96875 -19.453125 18.957031 -19.953125 17.6875 L -20.765625 17.625 L -21 20.84375 L -26.65625 20.4375 L -24.65625 -7.28125 C -24.582031 -8.300781 -24.195312 -9.113281 -23.5 -9.71875 C -22.800781 -10.332031 -21.941406 -10.601562 -20.921875 -10.53125 L -5.9375 -9.453125 L -6.328125 -4.0625 L -17.90625 -4.890625 C -18.71875 -4.953125 -19.160156 -4.539062 -19.234375 -3.65625 Z M -13.8125 3.78125 C -15.570312 3.644531 -17.039062 4.097656 -18.21875 5.140625 C -19.394531 6.191406 -20.046875 7.628906 -20.171875 9.453125 L -20.21875 10 C -20.34375 11.820312 -19.898438 13.332031 -18.890625 14.53125 C -17.878906 15.726562 -16.492188 16.394531 -14.734375 16.53125 C -12.960938 16.65625 -11.492188 16.210938 -10.328125 15.203125 C -9.160156 14.191406 -8.507812 12.742188 -8.375 10.859375 L -8.328125 10.3125 C -8.191406 8.4375 -8.628906 6.910156 -9.640625 5.734375 C -10.648438 4.554688 -12.039062 3.90625 -13.8125 3.78125 Z M -13.8125 3.78125 "/></g></g></g><g fill="#ffffff" fill-opacity="1"><g transform="translate(365.820466, 764.676707)"><g><path d="M -4.65625 4.78125 L -12.125 3.6875 L -13.78125 15.09375 L -6.84375 16.109375 L -7.625 21.4375 L -20.1875 19.609375 L -17.75 2.875 L -24.15625 1.9375 L -23.375 -3.40625 L -3.875 -0.5625 Z M -22.53125 25.96875 C -22.4375 25.363281 -22.238281 24.816406 -21.9375 24.328125 C -21.632812 23.835938 -21.257812 23.4375 -20.8125 23.125 C -20.375 22.8125 -19.878906 22.582031 -19.328125 22.4375 C -18.785156 22.300781 -18.226562 22.273438 -17.65625 22.359375 C -17.0625 22.441406 -16.523438 22.628906 -16.046875 22.921875 C -15.578125 23.210938 -15.179688 23.570312 -14.859375 24 C -14.535156 24.425781 -14.296875 24.914062 -14.140625 25.46875 C -13.984375 26.019531 -13.953125 26.597656 -14.046875 27.203125 C -14.128906 27.785156 -14.320312 28.320312 -14.625 28.8125 C -14.925781 29.300781 -15.296875 29.703125 -15.734375 30.015625 C -16.171875 30.328125 -16.65625 30.554688 -17.1875 30.703125 C -17.726562 30.859375 -18.296875 30.894531 -18.890625 30.8125 C -19.460938 30.726562 -19.988281 30.535156 -20.46875 30.234375 C -20.957031 29.929688 -21.363281 29.566406 -21.6875 29.140625 C -22.019531 28.710938 -22.265625 28.222656 -22.421875 27.671875 C -22.578125 27.117188 -22.613281 26.550781 -22.53125 25.96875 Z M -22.53125 25.96875 "/></g></g></g><g fill="#ffffff" fill-opacity="1"><g transform="translate(339.727446, 760.924699)"><g><path d="M -13.8125 13.359375 C -13.664062 12.660156 -13.925781 12.078125 -14.59375 11.609375 C -15.257812 11.140625 -16.53125 10.59375 -18.40625 9.96875 C -20.582031 9.226562 -22.253906 8.15625 -23.421875 6.75 C -24.585938 5.34375 -24.953125 3.664062 -24.515625 1.71875 L -24.46875 1.4375 C -23.988281 -0.726562 -22.8125 -2.28125 -20.9375 -3.21875 C -19.070312 -4.164062 -16.707031 -4.320312 -13.84375 -3.6875 C -12.132812 -3.3125 -10.726562 -2.769531 -9.625 -2.0625 C -8.53125 -1.363281 -7.660156 -0.597656 -7.015625 0.234375 C -6.367188 1.066406 -5.921875 1.929688 -5.671875 2.828125 C -5.429688 3.722656 -5.316406 4.566406 -5.328125 5.359375 L -10.78125 5.921875 C -10.820312 4.929688 -11.132812 4 -11.71875 3.125 C -12.3125 2.257812 -13.390625 1.65625 -14.953125 1.3125 C -16.316406 1.007812 -17.300781 1.015625 -17.90625 1.328125 C -18.519531 1.640625 -18.878906 2.039062 -18.984375 2.53125 C -19.054688 2.820312 -19.050781 3.109375 -18.96875 3.390625 C -18.894531 3.671875 -18.703125 3.957031 -18.390625 4.25 C -18.085938 4.550781 -17.65625 4.84375 -17.09375 5.125 C -16.53125 5.40625 -15.800781 5.6875 -14.90625 5.96875 C -12.5 6.71875 -10.6875 7.785156 -9.46875 9.171875 C -8.25 10.566406 -7.867188 12.304688 -8.328125 14.390625 L -8.390625 14.65625 C -8.628906 15.738281 -9.070312 16.640625 -9.71875 17.359375 C -10.363281 18.078125 -11.128906 18.632812 -12.015625 19.03125 C -12.898438 19.4375 -13.875 19.675781 -14.9375 19.75 C -16 19.832031 -17.0625 19.753906 -18.125 19.515625 C -19.5 19.210938 -20.65625 18.78125 -21.59375 18.21875 C -22.53125 17.65625 -23.289062 17.023438 -23.875 16.328125 C -24.457031 15.640625 -24.894531 14.914062 -25.1875 14.15625 C -25.488281 13.394531 -25.6875 12.679688 -25.78125 12.015625 L -20.3125 11.09375 C -20.226562 11.9375 -19.910156 12.65625 -19.359375 13.25 C -18.816406 13.851562 -18.035156 14.265625 -17.015625 14.484375 C -16.078125 14.691406 -15.335938 14.679688 -14.796875 14.453125 C -14.253906 14.222656 -13.925781 13.859375 -13.8125 13.359375 Z M -13.8125 13.359375 "/></g></g></g><g fill="#ffffff" fill-opacity="1"><g transform="translate(313.973126, 755.299865)"><g><path d="M -9.109375 20.578125 L -15.46875 18.6875 L -18.078125 27.484375 L -23.515625 25.859375 L -20.90625 17.0625 L -28.609375 14.78125 L -27.078125 9.609375 L -19.375 11.890625 L -16.46875 2.140625 C -16.21875 1.285156 -16.476562 0.742188 -17.25 0.515625 L -23.03125 -1.1875 L -21.484375 -6.375 L -12.421875 -3.6875 C -11.453125 -3.40625 -10.75 -2.851562 -10.3125 -2.03125 C -9.882812 -1.207031 -9.816406 -0.304688 -10.109375 0.671875 L -13.9375 13.515625 L -7.578125 15.40625 Z M -9.109375 20.578125 "/></g></g></g><g fill="#ffffff" fill-opacity="1"><g transform="translate(288.691857, 747.831273)"><g><path d="M -5.578125 3.671875 L -12.640625 1.015625 L -16.71875 11.78125 L -10.15625 14.25 L -12.0625 19.296875 L -23.921875 14.8125 L -17.9375 -1 L -24 -3.28125 L -22.09375 -8.34375 L -3.671875 -1.390625 Z M -27.5625 20.53125 C -27.351562 19.957031 -27.046875 19.460938 -26.640625 19.046875 C -26.242188 18.640625 -25.796875 18.328125 -25.296875 18.109375 C -24.804688 17.898438 -24.28125 17.78125 -23.71875 17.75 C -23.15625 17.726562 -22.601562 17.816406 -22.0625 18.015625 C -21.5 18.234375 -21.015625 18.535156 -20.609375 18.921875 C -20.210938 19.316406 -19.898438 19.757812 -19.671875 20.25 C -19.441406 20.738281 -19.3125 21.265625 -19.28125 21.828125 C -19.257812 22.398438 -19.351562 22.972656 -19.5625 23.546875 C -19.769531 24.097656 -20.070312 24.578125 -20.46875 24.984375 C -20.875 25.398438 -21.320312 25.71875 -21.8125 25.9375 C -22.3125 26.15625 -22.835938 26.273438 -23.390625 26.296875 C -23.953125 26.328125 -24.515625 26.234375 -25.078125 26.015625 C -25.617188 25.816406 -26.09375 25.519531 -26.5 25.125 C -26.90625 24.738281 -27.222656 24.296875 -27.453125 23.796875 C -27.679688 23.304688 -27.804688 22.773438 -27.828125 22.203125 C -27.859375 21.640625 -27.769531 21.082031 -27.5625 20.53125 Z M -27.5625 20.53125 "/></g></g></g><g fill="#ffffff" fill-opacity="1"><g transform="translate(264.015406, 738.557863)"><g><path d="M -26.390625 -3.1875 C -24.828125 -5.363281 -22.835938 -6.785156 -20.421875 -7.453125 C -18.015625 -8.128906 -15.367188 -7.796875 -12.484375 -6.453125 C -10.984375 -5.765625 -9.691406 -4.890625 -8.609375 -3.828125 C -7.535156 -2.765625 -6.722656 -1.578125 -6.171875 -0.265625 C -5.628906 1.046875 -5.378906 2.46875 -5.421875 4 C -5.460938 5.53125 -5.863281 7.109375 -6.625 8.734375 L -6.84375 9.21875 C -7.601562 10.851562 -8.554688 12.195312 -9.703125 13.25 C -10.859375 14.3125 -12.128906 15.082031 -13.515625 15.5625 C -14.910156 16.039062 -16.367188 16.222656 -17.890625 16.109375 C -19.410156 16.003906 -20.910156 15.613281 -22.390625 14.9375 C -25.210938 13.625 -27.160156 11.828125 -28.234375 9.546875 C -29.316406 7.265625 -29.535156 4.8125 -28.890625 2.1875 L -23.203125 3.25 C -23.597656 4.519531 -23.5625 5.789062 -23.09375 7.0625 C -22.632812 8.332031 -21.613281 9.332031 -20.03125 10.0625 C -19.300781 10.40625 -18.546875 10.59375 -17.765625 10.625 C -16.984375 10.65625 -16.226562 10.53125 -15.5 10.25 C -14.78125 9.96875 -14.109375 9.53125 -13.484375 8.9375 C -12.867188 8.351562 -12.359375 7.613281 -11.953125 6.71875 L -11.828125 6.484375 C -11.421875 5.585938 -11.195312 4.722656 -11.15625 3.890625 C -11.113281 3.054688 -11.226562 2.296875 -11.5 1.609375 C -11.78125 0.921875 -12.191406 0.3125 -12.734375 -0.21875 C -13.285156 -0.75 -13.925781 -1.1875 -14.65625 -1.53125 C -16.238281 -2.257812 -17.628906 -2.421875 -18.828125 -2.015625 C -20.023438 -1.617188 -21.046875 -0.804688 -21.890625 0.421875 Z M -26.390625 -3.1875 "/></g></g></g><g fill="#ffffff" fill-opacity="1"><g transform="translate(240.072411, 727.528129)"><g><path d="M -17.046875 8.875 C -16.703125 8.238281 -16.78125 7.601562 -17.28125 6.96875 C -17.789062 6.332031 -18.859375 5.441406 -20.484375 4.296875 C -22.367188 2.972656 -23.664062 1.472656 -24.375 -0.203125 C -25.082031 -1.890625 -24.953125 -3.609375 -23.984375 -5.359375 L -23.84375 -5.59375 C -22.769531 -7.539062 -21.207031 -8.695312 -19.15625 -9.0625 C -17.101562 -9.425781 -14.789062 -8.898438 -12.21875 -7.484375 C -10.695312 -6.640625 -9.503906 -5.722656 -8.640625 -4.734375 C -7.785156 -3.742188 -7.164062 -2.753906 -6.78125 -1.765625 C -6.394531 -0.785156 -6.210938 0.164062 -6.234375 1.09375 C -6.265625 2.019531 -6.398438 2.867188 -6.640625 3.640625 L -12.03125 2.59375 C -11.769531 1.644531 -11.800781 0.671875 -12.125 -0.328125 C -12.445312 -1.328125 -13.300781 -2.21875 -14.6875 -3 C -15.925781 -3.675781 -16.878906 -3.953125 -17.546875 -3.828125 C -18.222656 -3.703125 -18.679688 -3.421875 -18.921875 -2.984375 C -19.066406 -2.710938 -19.140625 -2.429688 -19.140625 -2.140625 C -19.148438 -1.847656 -19.050781 -1.519531 -18.84375 -1.15625 C -18.644531 -0.789062 -18.3125 -0.394531 -17.84375 0.03125 C -17.382812 0.46875 -16.769531 0.953125 -16 1.484375 C -13.894531 2.890625 -12.457031 4.429688 -11.6875 6.109375 C -10.925781 7.785156 -11.0625 9.554688 -12.09375 11.421875 L -12.21875 11.65625 C -12.757812 12.632812 -13.441406 13.375 -14.265625 13.875 C -15.085938 14.375 -15.976562 14.6875 -16.9375 14.8125 C -17.894531 14.945312 -18.894531 14.898438 -19.9375 14.671875 C -20.976562 14.441406 -21.972656 14.066406 -22.921875 13.546875 C -24.148438 12.859375 -25.132812 12.113281 -25.875 11.3125 C -26.613281 10.507812 -27.164062 9.691406 -27.53125 8.859375 C -27.894531 8.023438 -28.109375 7.203125 -28.171875 6.390625 C -28.242188 5.578125 -28.234375 4.84375 -28.140625 4.1875 L -22.625 4.84375 C -22.789062 5.6875 -22.695312 6.46875 -22.34375 7.1875 C -21.988281 7.914062 -21.351562 8.535156 -20.4375 9.046875 C -19.59375 9.503906 -18.878906 9.703125 -18.296875 9.640625 C -17.710938 9.578125 -17.296875 9.320312 -17.046875 8.875 Z M -17.046875 8.875 "/></g></g></g><g fill="#ffffff" fill-opacity="1"><g transform="translate(216.987675, 714.799448)"><g/></g></g><g fill="#ffffff" fill-opacity="1"><g transform="translate(194.881623, 700.438248)"><g><path d="M -25.09375 -8.796875 C -23.09375 -10.578125 -20.84375 -11.535156 -18.34375 -11.671875 C -15.84375 -11.816406 -13.332031 -10.925781 -10.8125 -9 C -9.488281 -8 -8.414062 -6.863281 -7.59375 -5.59375 C -6.769531 -4.332031 -6.226562 -3 -5.96875 -1.59375 C -5.707031 -0.1875 -5.765625 1.253906 -6.140625 2.734375 C -6.515625 4.210938 -7.25 5.664062 -8.34375 7.09375 L -8.671875 7.53125 C -9.753906 8.96875 -10.96875 10.078125 -12.3125 10.859375 C -13.664062 11.648438 -15.070312 12.128906 -16.53125 12.296875 C -18 12.460938 -19.460938 12.328125 -20.921875 11.890625 C -22.390625 11.453125 -23.773438 10.742188 -25.078125 9.765625 C -27.554688 7.878906 -29.078125 5.707031 -29.640625 3.25 C -30.203125 0.789062 -29.882812 -1.644531 -28.6875 -4.0625 L -23.359375 -1.828125 C -24.015625 -0.660156 -24.253906 0.59375 -24.078125 1.9375 C -23.898438 3.28125 -23.117188 4.476562 -21.734375 5.53125 C -21.085938 6.019531 -20.382812 6.363281 -19.625 6.5625 C -18.875 6.757812 -18.113281 6.796875 -17.34375 6.671875 C -16.570312 6.554688 -15.820312 6.28125 -15.09375 5.84375 C -14.363281 5.40625 -13.695312 4.789062 -13.09375 4 L -12.9375 3.78125 C -12.332031 3 -11.925781 2.207031 -11.71875 1.40625 C -11.507812 0.601562 -11.460938 -0.160156 -11.578125 -0.890625 C -11.703125 -1.628906 -11.972656 -2.316406 -12.390625 -2.953125 C -12.816406 -3.585938 -13.351562 -4.148438 -14 -4.640625 C -15.382812 -5.691406 -16.703125 -6.148438 -17.953125 -6.015625 C -19.210938 -5.878906 -20.390625 -5.304688 -21.484375 -4.296875 Z M -25.09375 -8.796875 "/></g></g></g><g fill="#ffffff" fill-opacity="1"><g transform="translate(173.869441, 684.519327)"><g><path d="M -26.25 -8.609375 C -25.007812 -10.003906 -23.679688 -11.023438 -22.265625 -11.671875 C -20.859375 -12.328125 -19.425781 -12.660156 -17.96875 -12.671875 C -16.507812 -12.691406 -15.085938 -12.429688 -13.703125 -11.890625 C -12.328125 -11.359375 -11.066406 -10.582031 -9.921875 -9.5625 C -8.773438 -8.550781 -7.84375 -7.394531 -7.125 -6.09375 C -6.414062 -4.789062 -5.976562 -3.414062 -5.8125 -1.96875 C -5.644531 -0.519531 -5.796875 0.941406 -6.265625 2.421875 C -6.734375 3.910156 -7.585938 5.351562 -8.828125 6.75 L -9.1875 7.15625 C -10.394531 8.53125 -11.703125 9.539062 -13.109375 10.1875 C -14.523438 10.84375 -15.960938 11.179688 -17.421875 11.203125 C -18.890625 11.234375 -20.316406 10.976562 -21.703125 10.4375 C -23.085938 9.90625 -24.351562 9.132812 -25.5 8.125 C -26.644531 7.101562 -27.570312 5.941406 -28.28125 4.640625 C -28.988281 3.335938 -29.421875 1.957031 -29.578125 0.5 C -29.742188 -0.957031 -29.59375 -2.425781 -29.125 -3.90625 C -28.65625 -5.394531 -27.816406 -6.828125 -26.609375 -8.203125 Z M -13.484375 -5.515625 C -14.097656 -6.054688 -14.757812 -6.460938 -15.46875 -6.734375 C -16.1875 -7.003906 -16.914062 -7.128906 -17.65625 -7.109375 C -18.40625 -7.085938 -19.140625 -6.90625 -19.859375 -6.5625 C -20.578125 -6.21875 -21.242188 -5.695312 -21.859375 -5 L -22.453125 -4.3125 C -23.066406 -3.625 -23.5 -2.898438 -23.75 -2.140625 C -24 -1.378906 -24.085938 -0.628906 -24.015625 0.109375 C -23.953125 0.859375 -23.738281 1.570312 -23.375 2.25 C -23.019531 2.925781 -22.535156 3.535156 -21.921875 4.078125 C -21.316406 4.609375 -20.65625 5.007812 -19.9375 5.28125 C -19.21875 5.550781 -18.488281 5.671875 -17.75 5.640625 C -17.007812 5.617188 -16.273438 5.4375 -15.546875 5.09375 C -14.828125 4.75 -14.160156 4.234375 -13.546875 3.546875 L -12.953125 2.859375 C -12.335938 2.160156 -11.90625 1.429688 -11.65625 0.671875 C -11.414062 -0.0859375 -11.328125 -0.835938 -11.390625 -1.578125 C -11.453125 -2.316406 -11.664062 -3.023438 -12.03125 -3.703125 C -12.394531 -4.378906 -12.878906 -4.984375 -13.484375 -5.515625 Z M -13.484375 -5.515625 "/></g></g></g><g fill="#ffffff" fill-opacity="1"><g transform="translate(154.060701, 667.125753)"><g><path d="M -18.15625 -18.5 L -14.1875 -14.453125 L -25.359375 -3.484375 C -25.804688 -3.035156 -26.03125 -2.585938 -26.03125 -2.140625 C -26.039062 -1.703125 -25.867188 -1.300781 -25.515625 -0.9375 C -25.085938 -0.5 -24.625 -0.28125 -24.125 -0.28125 C -23.632812 -0.289062 -23.132812 -0.550781 -22.625 -1.0625 L -11.640625 -11.84375 L -7.65625 -7.796875 L -18.828125 3.171875 C -19.273438 3.617188 -19.488281 4.070312 -19.46875 4.53125 C -19.457031 5 -19.285156 5.398438 -18.953125 5.734375 C -18.578125 6.128906 -18.132812 6.328125 -17.625 6.328125 C -17.113281 6.335938 -16.601562 6.085938 -16.09375 5.578125 L -5.109375 -5.203125 L -1.140625 -1.15625 L -17.0625 14.484375 L -21.03125 10.4375 L -19.484375 8.921875 L -20.046875 8.34375 C -20.765625 8.789062 -21.535156 8.960938 -22.359375 8.859375 C -23.179688 8.765625 -23.960938 8.347656 -24.703125 7.609375 C -25.390625 6.898438 -25.785156 6.113281 -25.890625 5.25 C -26.003906 4.394531 -25.851562 3.597656 -25.4375 2.859375 L -26.015625 2.28125 C -26.765625 2.675781 -27.59375 2.78125 -28.5 2.59375 C -29.414062 2.414062 -30.269531 1.925781 -31.0625 1.125 C -32.113281 0.0507812 -32.59375 -1.15625 -32.5 -2.5 C -32.414062 -3.851562 -31.742188 -5.148438 -30.484375 -6.390625 Z M -18.15625 -18.5 "/></g></g></g><g fill="#ffffff" fill-opacity="1"><g transform="translate(135.558663, 648.348176)"><g><path d="M 1.671875 -11.9375 L 5.34375 -7.609375 L -18.515625 12.65625 L -22.1875 8.328125 L -19.734375 6.234375 L -20.25 5.625 C -21.582031 5.96875 -22.875 5.921875 -24.125 5.484375 C -25.375 5.054688 -26.578125 4.164062 -27.734375 2.8125 C -28.585938 1.8125 -29.203125 0.695312 -29.578125 -0.53125 C -29.953125 -1.757812 -30.050781 -3.023438 -29.875 -4.328125 C -29.707031 -5.640625 -29.253906 -6.953125 -28.515625 -8.265625 C -27.785156 -9.585938 -26.734375 -10.832031 -25.359375 -12 L -24.734375 -12.53125 C -23.347656 -13.707031 -21.953125 -14.554688 -20.546875 -15.078125 C -19.140625 -15.597656 -17.785156 -15.84375 -16.484375 -15.8125 C -15.179688 -15.78125 -13.957031 -15.472656 -12.8125 -14.890625 C -11.664062 -14.304688 -10.648438 -13.492188 -9.765625 -12.453125 C -9.097656 -11.671875 -8.597656 -10.925781 -8.265625 -10.21875 C -7.941406 -9.507812 -7.738281 -8.828125 -7.65625 -8.171875 C -7.570312 -7.515625 -7.582031 -6.894531 -7.6875 -6.3125 C -7.789062 -5.726562 -7.953125 -5.164062 -8.171875 -4.625 L -7.65625 -4.015625 Z M -12.65625 -7.5625 C -13.800781 -8.90625 -15.144531 -9.632812 -16.6875 -9.75 C -18.238281 -9.875 -19.734375 -9.328125 -21.171875 -8.109375 L -21.59375 -7.75 C -23.03125 -6.53125 -23.8125 -5.148438 -23.9375 -3.609375 C -24.0625 -2.066406 -23.550781 -0.625 -22.40625 0.71875 C -21.257812 2.070312 -19.898438 2.800781 -18.328125 2.90625 C -16.765625 3.007812 -15.289062 2.472656 -13.90625 1.296875 L -13.484375 0.9375 C -12.085938 -0.25 -11.3125 -1.625 -11.15625 -3.1875 C -11.007812 -4.75 -11.507812 -6.207031 -12.65625 -7.5625 Z M -12.65625 -7.5625 "/></g></g></g><g fill="#ffffff" fill-opacity="1"><g transform="translate(118.459789, 628.284476)"><g><path d="M -13.21875 -12.578125 C -11.726562 -12.921875 -10.425781 -12.828125 -9.3125 -12.296875 C -8.207031 -11.773438 -7.234375 -10.9375 -6.390625 -9.78125 C -5.585938 -8.6875 -5.039062 -7.507812 -4.75 -6.25 C -4.46875 -5 -4.457031 -3.71875 -4.71875 -2.40625 C -4.988281 -1.09375 -5.535156 0.1875 -6.359375 1.4375 C -7.179688 2.695312 -8.320312 3.859375 -9.78125 4.921875 L -10.359375 5.34375 C -11.785156 6.394531 -13.21875 7.128906 -14.65625 7.546875 C -16.101562 7.972656 -17.476562 8.125 -18.78125 8 C -20.09375 7.882812 -21.300781 7.515625 -22.40625 6.890625 C -23.519531 6.273438 -24.46875 5.4375 -25.25 4.375 C -26.175781 3.09375 -26.707031 1.894531 -26.84375 0.78125 C -26.988281 -0.320312 -26.769531 -1.4375 -26.1875 -2.5625 L -26.671875 -3.21875 L -28.84375 -1.625 L -32.1875 -6.203125 L -19.640625 -15.40625 C -18.910156 -15.9375 -18.789062 -16.53125 -19.28125 -17.1875 L -19.765625 -17.859375 L -15.40625 -21.046875 L -13.140625 -17.9375 C -12.535156 -17.113281 -12.28125 -16.265625 -12.375 -15.390625 C -12.476562 -14.515625 -12.914062 -13.796875 -13.6875 -13.234375 Z M -11.484375 -7.609375 C -12.453125 -8.941406 -13.671875 -9.679688 -15.140625 -9.828125 C -16.609375 -9.972656 -18.101562 -9.488281 -19.625 -8.375 L -20.078125 -8.0625 C -21.597656 -6.945312 -22.503906 -5.664062 -22.796875 -4.21875 C -23.097656 -2.78125 -22.765625 -1.394531 -21.796875 -0.0625 C -20.816406 1.269531 -19.59375 2.007812 -18.125 2.15625 C -16.65625 2.3125 -15.160156 1.832031 -13.640625 0.71875 L -13.1875 0.40625 C -11.664062 -0.707031 -10.753906 -1.988281 -10.453125 -3.4375 C -10.160156 -4.882812 -10.503906 -6.273438 -11.484375 -7.609375 Z M -11.484375 -7.609375 "/></g></g></g><g fill="#ffffff" fill-opacity="1"><g transform="translate(102.853227, 607.0393)"><g><path d="M -4.875 -7.78125 L -1.859375 -2.984375 L -20.765625 8.859375 L -23.78125 4.0625 L -20.96875 2.296875 L -21.390625 1.625 C -22.722656 1.851562 -23.988281 1.664062 -25.1875 1.0625 C -26.382812 0.46875 -27.390625 -0.472656 -28.203125 -1.765625 C -28.773438 -2.679688 -29.164062 -3.628906 -29.375 -4.609375 C -29.582031 -5.597656 -29.566406 -6.585938 -29.328125 -7.578125 C -29.097656 -8.578125 -28.625 -9.539062 -27.90625 -10.46875 C -27.1875 -11.40625 -26.175781 -12.28125 -24.875 -13.09375 L -12.90625 -20.59375 L -9.890625 -15.78125 L -20.640625 -9.046875 C -21.992188 -8.203125 -22.851562 -7.210938 -23.21875 -6.078125 C -23.582031 -4.953125 -23.382812 -3.78125 -22.625 -2.5625 C -21.726562 -1.132812 -20.582031 -0.367188 -19.1875 -0.265625 C -17.800781 -0.160156 -16.3125 -0.613281 -14.71875 -1.625 Z M -4.875 -7.78125 "/></g></g></g><g fill="#ffffff" fill-opacity="1"><g transform="translate(88.820367, 584.723318)"><g><path d="M -28.4375 -6 L -31.09375 -11.015625 L -6.53125 -24.03125 C -5.625 -24.507812 -4.726562 -24.617188 -3.84375 -24.359375 C -2.957031 -24.097656 -2.273438 -23.519531 -1.796875 -22.625 L 4.40625 -10.90625 L -0.375 -8.375 L -4.984375 -17.078125 C -5.359375 -17.785156 -5.941406 -17.925781 -6.734375 -17.5 L -11.578125 -14.9375 L -11.203125 -14.21875 C -8.460938 -14.550781 -6.332031 -13.28125 -4.8125 -10.40625 C -4.289062 -9.414062 -3.960938 -8.410156 -3.828125 -7.390625 C -3.703125 -6.378906 -3.796875 -5.378906 -4.109375 -4.390625 C -4.429688 -3.398438 -4.992188 -2.460938 -5.796875 -1.578125 C -6.609375 -0.703125 -7.691406 0.09375 -9.046875 0.8125 L -21.359375 7.34375 L -24.015625 2.34375 L -12.734375 -3.640625 C -11.328125 -4.378906 -10.40625 -5.289062 -9.96875 -6.375 C -9.539062 -7.457031 -9.675781 -8.660156 -10.375 -9.984375 C -11.175781 -11.492188 -12.242188 -12.34375 -13.578125 -12.53125 C -14.921875 -12.71875 -16.429688 -12.363281 -18.109375 -11.46875 Z M -28.4375 -6 "/></g></g></g></svg>