<svg xmlns="http://www.w3.org/2000/svg" xmlns:xlink="http://www.w3.org/1999/xlink" width="150" zoomAndPan="magnify" viewBox="0 0 112.5 809.999998" height="1080" preserveAspectRatio="xMidYMid meet" version="1.0"><defs><clipPath id="1310c992ad"><path d="M 11.199219 117.527344 L 100.800781 117.527344 L 100.800781 220.570312 L 11.199219 220.570312 Z M 11.199219 117.527344 " clip-rule="nonzero"/></clipPath><clipPath id="baecf67504"><path d="M 11.199219 2.539062 L 100.800781 2.539062 L 100.800781 92.140625 L 11.199219 92.140625 Z M 11.199219 2.539062 " clip-rule="nonzero"/></clipPath><clipPath id="f47192f7cf"><path d="M 11.199219 703.671875 L 100.800781 703.671875 L 100.800781 801.488281 L 11.199219 801.488281 Z M 11.199219 703.671875 " clip-rule="nonzero"/></clipPath><clipPath id="a634de1db7"><path d="M 27.8125 233.261719 L 84.1875 233.261719 L 84.1875 289.636719 L 27.8125 289.636719 Z M 27.8125 233.261719 " clip-rule="nonzero"/></clipPath><clipPath id="37e749f016"><path d="M 56 233.261719 C 40.433594 233.261719 27.8125 245.882812 27.8125 261.449219 C 27.8125 277.019531 40.433594 289.636719 56 289.636719 C 71.570312 289.636719 84.1875 277.019531 84.1875 261.449219 C 84.1875 245.882812 71.570312 233.261719 56 233.261719 Z M 56 233.261719 " clip-rule="nonzero"/></clipPath><clipPath id="a33cd5d050"><path d="M 27.8125 349 L 84.1875 349 L 84.1875 405.375 L 27.8125 405.375 Z M 27.8125 349 " clip-rule="nonzero"/></clipPath><clipPath id="c3f9e85099"><path d="M 56 349 C 40.433594 349 27.8125 361.617188 27.8125 377.1875 C 27.8125 392.753906 40.433594 405.375 56 405.375 C 71.570312 405.375 84.1875 392.753906 84.1875 377.1875 C 84.1875 361.617188 71.570312 349 56 349 Z M 56 349 " clip-rule="nonzero"/></clipPath><clipPath id="f62cd54ce5"><path d="M 27.8125 465.109375 L 84.1875 465.109375 L 84.1875 521.480469 L 27.8125 521.480469 Z M 27.8125 465.109375 " clip-rule="nonzero"/></clipPath><clipPath id="e04d48dbb5"><path d="M 56 465.109375 C 40.433594 465.109375 27.8125 477.726562 27.8125 493.296875 C 27.8125 508.863281 40.433594 521.480469 56 521.480469 C 71.570312 521.480469 84.1875 508.863281 84.1875 493.296875 C 84.1875 477.726562 71.570312 465.109375 56 465.109375 Z M 56 465.109375 " clip-rule="nonzero"/></clipPath><clipPath id="96eb84fac8"><path d="M 27.8125 581.21875 L 84.1875 581.21875 L 84.1875 637.589844 L 27.8125 637.589844 Z M 27.8125 581.21875 " clip-rule="nonzero"/></clipPath><clipPath id="e80315c889"><path d="M 56 581.21875 C 40.433594 581.21875 27.8125 593.835938 27.8125 609.402344 C 27.8125 624.972656 40.433594 637.589844 56 637.589844 C 71.570312 637.589844 84.1875 624.972656 84.1875 609.402344 C 84.1875 593.835938 71.570312 581.21875 56 581.21875 Z M 56 581.21875 " clip-rule="nonzero"/></clipPath></defs><g clip-path="url(#1310c992ad)"><path fill="#dbe2ef" d="M 100.8125 144.203125 C 100.8125 143.609375 100.496094 143.0625 99.984375 142.765625 L 56.839844 117.855469 C 56.324219 117.558594 55.691406 117.558594 55.179688 117.855469 L 27.230469 133.992188 C 27.226562 133.992188 27.226562 133.992188 27.226562 133.992188 L 12.039062 142.761719 C 12.039062 142.765625 12.035156 142.765625 12.03125 142.765625 C 11.96875 142.800781 11.90625 142.84375 11.847656 142.890625 C 11.441406 143.199219 11.199219 143.6875 11.199219 144.203125 C 11.199219 144.214844 11.203125 144.230469 11.203125 144.242188 L 11.199219 194.023438 C 11.199219 194.617188 11.515625 195.164062 12.03125 195.460938 L 55.175781 220.371094 C 55.433594 220.519531 55.71875 220.59375 56.007812 220.59375 C 56.292969 220.59375 56.578125 220.519531 56.835938 220.371094 L 99.984375 195.460938 C 100.496094 195.164062 100.8125 194.617188 100.8125 194.023438 Z M 83.105469 155.382812 L 83.105469 162.339844 L 73.175781 168.074219 L 73.175781 161.117188 Z M 28.09375 137.328125 L 67.917969 160.320312 L 56.007812 167.195312 L 16.183594 144.203125 Z M 41.621094 129.515625 L 81.445312 152.507812 L 71.234375 158.402344 L 31.414062 135.410156 Z M 56.007812 121.210938 L 95.828125 144.203125 L 84.765625 150.589844 L 44.941406 127.597656 Z M 14.523438 147.082031 L 54.347656 170.070312 L 54.347656 216.058594 L 14.519531 193.066406 Z M 57.667969 216.058594 L 57.667969 170.070312 L 69.855469 163.03125 L 69.855469 170.949219 C 69.855469 171.542969 70.171875 172.089844 70.6875 172.386719 C 70.941406 172.535156 71.230469 172.609375 71.515625 172.609375 C 71.800781 172.609375 72.089844 172.535156 72.34375 172.386719 L 85.597656 164.738281 C 86.109375 164.441406 86.425781 163.894531 86.425781 163.300781 L 86.425781 153.464844 L 97.492188 147.078125 L 97.492188 193.066406 Z M 77.542969 181.484375 C 77.03125 181.1875 76.398438 181.1875 75.882812 181.484375 L 63.234375 188.789062 C 62.71875 189.085938 62.402344 189.632812 62.402344 190.226562 L 62.402344 204.835938 C 62.402344 205.429688 62.71875 205.976562 63.234375 206.273438 C 63.488281 206.421875 63.777344 206.496094 64.0625 206.496094 C 64.347656 206.496094 64.636719 206.417969 64.890625 206.273438 L 77.542969 198.964844 C 78.054688 198.671875 78.371094 198.121094 78.371094 197.53125 L 78.371094 182.917969 C 78.371094 182.328125 78.054688 181.78125 77.542969 181.484375 Z M 65.722656 201.960938 L 65.722656 191.183594 L 75.050781 185.796875 L 75.050781 196.574219 Z M 29.320312 194.859375 C 29.011719 195.390625 28.457031 195.6875 27.878906 195.6875 C 27.597656 195.6875 27.3125 195.617188 27.050781 195.46875 L 18.441406 190.496094 C 17.648438 190.035156 17.375 189.019531 17.832031 188.226562 C 18.292969 187.433594 19.304688 187.160156 20.101562 187.621094 L 28.710938 192.59375 C 29.503906 193.050781 29.777344 194.0625 29.320312 194.859375 Z M 29.320312 194.859375 " fill-opacity="1" fill-rule="nonzero"/></g><g clip-path="url(#baecf67504)"><path fill="#dbe2ef" d="M 97.21875 2.539062 L 81.984375 2.539062 L 78.402344 47.339844 L 64.960938 47.339844 L 64.960938 33.898438 L 38.082031 47.339844 L 38.082031 33.898438 L 11.199219 47.339844 L 11.199219 92.140625 L 100.800781 92.140625 Z M 29.121094 65.261719 L 20.160156 65.261719 L 20.160156 56.300781 L 29.121094 56.300781 Z M 47.039062 65.261719 L 38.082031 65.261719 L 38.082031 56.300781 L 47.039062 56.300781 Z M 56 56.300781 L 64.960938 56.300781 L 64.960938 65.261719 L 56 65.261719 Z M 29.121094 83.179688 L 20.160156 83.179688 L 20.160156 74.21875 L 29.121094 74.21875 Z M 47.039062 83.179688 L 38.082031 83.179688 L 38.082031 74.21875 L 47.039062 74.21875 Z M 56 74.21875 L 64.960938 74.21875 L 64.960938 83.179688 L 56 83.179688 Z M 73.921875 56.300781 L 82.882812 56.300781 L 82.882812 65.261719 L 73.921875 65.261719 Z M 73.921875 74.21875 L 82.882812 74.21875 L 82.882812 83.179688 L 73.921875 83.179688 Z M 73.921875 74.21875 " fill-opacity="1" fill-rule="nonzero"/></g><g clip-path="url(#f47192f7cf)"><path fill="#dbe2ef" d="M 100.796875 792.324219 L 100.796875 791.339844 C 100.796875 785.296875 99.609375 779.429688 97.273438 773.90625 C 95.015625 768.570312 91.789062 763.78125 87.675781 759.667969 C 83.5625 755.558594 78.773438 752.328125 73.4375 750.070312 C 73.089844 749.921875 72.734375 749.78125 72.378906 749.640625 C 73.050781 749.089844 73.699219 748.507812 74.316406 747.886719 C 76.695312 745.511719 78.5625 742.742188 79.867188 739.65625 C 81.21875 736.460938 81.902344 733.066406 81.902344 729.574219 C 81.902344 726.078125 81.21875 722.6875 79.867188 719.488281 C 78.5625 716.40625 76.695312 713.636719 74.316406 711.257812 C 71.941406 708.882812 69.171875 707.015625 66.085938 705.710938 C 62.890625 704.359375 59.496094 703.671875 56.003906 703.671875 C 52.507812 703.671875 49.117188 704.359375 45.917969 705.710938 C 42.835938 707.015625 40.066406 708.882812 37.6875 711.257812 C 35.308594 713.636719 33.445312 716.40625 32.140625 719.488281 C 30.785156 722.6875 30.101562 726.078125 30.101562 729.574219 C 30.101562 733.066406 30.785156 736.460938 32.140625 739.65625 C 33.445312 742.742188 35.3125 745.511719 37.6875 747.886719 C 38.308594 748.507812 38.953125 749.089844 39.625 749.640625 C 39.269531 749.78125 38.914062 749.921875 38.566406 750.070312 C 33.230469 752.328125 28.441406 755.558594 24.328125 759.667969 C 20.21875 763.78125 16.988281 768.570312 14.734375 773.90625 C 12.394531 779.429688 11.210938 785.296875 11.210938 791.339844 L 11.210938 792.324219 C 11.210938 796.921875 14.738281 800.710938 19.230469 801.125 L 93.382812 801.050781 L 93.410156 801.046875 C 94.183594 800.96875 94.929688 800.738281 95.613281 800.371094 C 98.667969 798.976562 100.796875 795.894531 100.796875 792.324219 Z M 36.914062 737.636719 C 35.832031 735.082031 35.285156 732.371094 35.285156 729.574219 C 35.285156 726.777344 35.832031 724.0625 36.914062 721.507812 C 37.957031 719.042969 39.449219 716.824219 41.351562 714.921875 C 43.253906 713.019531 45.472656 711.527344 47.9375 710.484375 C 50.492188 709.402344 53.207031 708.855469 56.003906 708.855469 C 58.800781 708.855469 61.511719 709.402344 64.066406 710.484375 C 66.535156 711.527344 68.75 713.019531 70.652344 714.921875 C 72.554688 716.824219 74.050781 719.042969 75.09375 721.507812 C 76.171875 724.0625 76.722656 726.777344 76.722656 729.574219 C 76.722656 732.371094 76.171875 735.082031 75.09375 737.636719 C 74.050781 740.105469 72.554688 742.320312 70.652344 744.222656 C 68.75 746.125 66.535156 747.621094 64.066406 748.664062 C 61.511719 749.742188 58.800781 750.292969 56.003906 750.292969 C 53.207031 750.292969 50.492188 749.742188 47.9375 748.664062 C 45.472656 747.621094 43.253906 746.125 41.351562 744.222656 C 39.449219 742.320312 37.957031 740.105469 36.914062 737.636719 Z M 95.613281 792.324219 C 95.613281 794.34375 93.972656 795.980469 91.957031 795.980469 L 20.050781 795.980469 C 18.03125 795.980469 16.394531 794.34375 16.394531 792.324219 L 16.394531 791.339844 C 16.394531 785.996094 17.441406 780.808594 19.503906 775.921875 C 21.5 771.207031 24.355469 766.972656 27.992188 763.332031 C 31.632812 759.695312 35.867188 756.839844 40.585938 754.84375 C 41.625 754.40625 42.691406 754.007812 43.757812 753.660156 C 44.132812 753.539062 44.511719 753.421875 44.886719 753.3125 C 45.023438 753.269531 45.15625 753.21875 45.285156 753.15625 C 45.496094 753.253906 45.707031 753.347656 45.917969 753.4375 C 49.117188 754.789062 52.507812 755.472656 56.003906 755.472656 C 59.496094 755.472656 62.890625 754.789062 66.085938 753.4375 C 66.300781 753.347656 66.511719 753.253906 66.722656 753.15625 C 66.847656 753.21875 66.980469 753.269531 67.121094 753.3125 C 68.570312 753.734375 70.019531 754.25 71.421875 754.84375 C 76.136719 756.839844 80.375 759.695312 84.011719 763.332031 C 87.648438 766.972656 90.503906 771.207031 92.5 775.921875 C 94.566406 780.808594 95.613281 785.996094 95.613281 791.339844 Z M 95.613281 792.324219 " fill-opacity="1" fill-rule="nonzero"/></g><g clip-path="url(#a634de1db7)"><g clip-path="url(#37e749f016)"><path fill="#dbe2ef" d="M 27.8125 233.261719 L 84.1875 233.261719 L 84.1875 289.636719 L 27.8125 289.636719 Z M 27.8125 233.261719 " fill-opacity="1" fill-rule="nonzero"/></g></g><g clip-path="url(#a33cd5d050)"><g clip-path="url(#c3f9e85099)"><path fill="#dbe2ef" d="M 27.8125 349 L 84.1875 349 L 84.1875 405.375 L 27.8125 405.375 Z M 27.8125 349 " fill-opacity="1" fill-rule="nonzero"/></g></g><g clip-path="url(#f62cd54ce5)"><g clip-path="url(#e04d48dbb5)"><path fill="#dbe2ef" d="M 27.8125 465.109375 L 84.1875 465.109375 L 84.1875 521.480469 L 27.8125 521.480469 Z M 27.8125 465.109375 " fill-opacity="1" fill-rule="nonzero"/></g></g><g clip-path="url(#96eb84fac8)"><g clip-path="url(#e80315c889)"><path fill="#dbe2ef" d="M 27.8125 581.21875 L 84.1875 581.21875 L 84.1875 637.589844 L 27.8125 637.589844 Z M 27.8125 581.21875 " fill-opacity="1" fill-rule="nonzero"/></g></g></svg>