<svg xmlns="http://www.w3.org/2000/svg" xmlns:xlink="http://www.w3.org/1999/xlink" width="1080" zoomAndPan="magnify" viewBox="0 0 810 809.999993" height="1080" preserveAspectRatio="xMidYMid meet" version="1.0"><defs><clipPath id="61f9f6051e"><path d="M 120 120 L 690 120 L 690 690 L 120 690 Z M 120 120 " clip-rule="nonzero"/></clipPath><clipPath id="79fcb63ea0"><path d="M 405 120 C 247.597656 120 120 247.597656 120 405 C 120 562.402344 247.597656 690 405 690 C 562.402344 690 690 562.402344 690 405 C 690 247.597656 562.402344 120 405 120 Z M 405 120 " clip-rule="nonzero"/></clipPath><clipPath id="09556e173c"><path d="M 298.488281 690 L 511.488281 690 L 511.488281 798.609375 L 298.488281 798.609375 Z M 298.488281 690 " clip-rule="nonzero"/></clipPath></defs><g clip-path="url(#61f9f6051e)"><g clip-path="url(#79fcb63ea0)"><path fill="#dbe2ef" d="M 120 120 L 690 120 L 690 690 L 120 690 Z M 120 120 " fill-opacity="1" fill-rule="nonzero"/></g></g><g clip-path="url(#09556e173c)"><path fill="#dbe2ef" d="M 302.890625 712.242188 L 303 712.242188 L 303 715.851562 C 302.46875 716.222656 302.097656 716.859375 302.097656 717.605469 L 302.097656 729.070312 C 302.097656 729.8125 302.46875 730.398438 303 730.820312 L 303 733.742188 C 303 739.207031 303.742188 745.046875 312.449219 745.84375 C 312.765625 758.585938 315.898438 767.660156 321.894531 772.8125 C 327.046875 777.269531 333.042969 777.800781 337.132812 777.800781 C 337.449219 777.800781 337.769531 777.800781 338.085938 777.800781 L 353.746094 777.800781 L 353.746094 796.484375 C 353.746094 797.652344 354.703125 798.609375 355.871094 798.609375 L 509.121094 798.609375 C 510.289062 798.609375 511.246094 797.652344 511.246094 796.484375 L 511.246094 714.949219 C 511.246094 713.78125 510.289062 712.824219 509.121094 712.824219 L 487.941406 712.824219 C 488.15625 712.453125 488.421875 712.03125 488.578125 711.65625 L 499.300781 711.65625 C 500.46875 711.65625 501.425781 710.703125 501.425781 709.535156 L 501.425781 704.917969 C 501.425781 703.75 500.46875 702.792969 499.300781 702.792969 L 490.066406 702.792969 C 489.003906 695.519531 482.6875 690 475.253906 690 C 467.824219 690 461.507812 695.574219 460.445312 702.792969 L 455.773438 702.792969 C 454.710938 695.519531 448.394531 690 440.964844 690 C 433.53125 690 427.214844 695.574219 426.152344 702.792969 L 405.238281 702.792969 C 404.015625 699.925781 401.203125 698.015625 398.019531 698.015625 L 367.867188 698.015625 C 364.683594 698.015625 361.867188 699.875 360.648438 702.792969 L 348.332031 702.792969 C 347.269531 695.519531 340.953125 690 333.523438 690 C 326.089844 690 319.773438 695.574219 318.710938 702.792969 L 317.808594 702.792969 C 317.171875 701.308594 315.738281 700.296875 314.039062 700.296875 L 302.839844 700.296875 C 300.609375 700.296875 298.75 702.101562 298.75 704.386719 L 298.75 708.261719 C 298.804688 710.4375 300.664062 712.242188 302.890625 712.242188 Z M 303.050781 707.996094 L 303.050781 704.492188 L 313.933594 704.492188 L 313.933594 707.996094 Z M 318.179688 708.15625 L 318.179688 706.988281 L 318.765625 706.988281 C 319.824219 714.257812 326.144531 719.832031 333.574219 719.832031 C 341.007812 719.832031 347.324219 714.257812 348.386719 706.988281 L 360.0625 706.988281 L 360.0625 707.359375 L 355.816406 707.359375 C 354.648438 707.359375 353.695312 708.3125 353.695312 709.480469 L 353.695312 714.894531 C 353.695312 716.0625 354.648438 717.019531 355.816406 717.019531 L 360.859375 717.019531 C 362.1875 719.671875 364.894531 721.425781 367.867188 721.425781 L 398.070312 721.425781 C 401.042969 721.425781 403.804688 719.671875 405.078125 717.019531 L 432.203125 717.019531 C 434.753906 718.878906 437.777344 719.832031 440.910156 719.832031 C 444.042969 719.832031 447.066406 718.878906 449.617188 717.019531 L 466.496094 717.019531 C 469.042969 718.878906 472.070312 719.832031 475.203125 719.832031 C 478.335938 719.832031 481.359375 718.878906 483.90625 717.019531 L 507 717.019531 L 507 722.382812 L 355.816406 722.382812 C 354.648438 722.382812 353.695312 723.335938 353.695312 724.503906 L 353.695312 773.554688 L 338.671875 773.554688 C 338.457031 773.554688 338.246094 773.554688 337.980469 773.554688 C 337.714844 773.554688 337.398438 773.554688 337.078125 773.554688 C 334.425781 773.554688 329.433594 773.554688 324.976562 769.945312 C 319.402344 765.378906 316.589844 756.621094 316.589844 743.828125 C 316.589844 742.660156 315.632812 741.703125 314.464844 741.703125 C 307.511719 741.703125 307.140625 738.996094 307.140625 733.742188 L 307.140625 730.609375 C 310.003906 729.386719 311.96875 726.523438 311.96875 723.390625 C 311.96875 720.257812 310.003906 717.339844 307.140625 716.171875 L 307.140625 712.347656 L 314.039062 712.347656 C 316.375 712.242188 318.179688 710.4375 318.179688 708.15625 Z M 333.574219 715.585938 C 327.683594 715.585938 322.851562 710.808594 322.851562 704.863281 C 322.851562 698.917969 327.628906 694.140625 333.574219 694.140625 C 339.46875 694.140625 344.246094 698.917969 344.246094 704.863281 C 344.246094 710.753906 339.46875 715.585938 333.574219 715.585938 Z M 360.011719 711.605469 L 360.011719 712.773438 L 357.886719 712.773438 L 357.886719 711.605469 Z M 401.679688 713.570312 C 401.679688 715.535156 400.089844 717.179688 398.070312 717.179688 L 367.867188 717.179688 C 365.902344 717.179688 364.257812 715.585938 364.257812 713.570312 L 364.257812 705.820312 C 364.257812 703.855469 365.851562 702.210938 367.867188 702.210938 L 398.070312 702.210938 C 400.035156 702.210938 401.679688 703.800781 401.679688 705.820312 Z M 405.929688 707.359375 L 405.929688 706.988281 L 426.207031 706.988281 C 426.207031 707.09375 426.257812 707.253906 426.257812 707.359375 Z M 428.277344 712.773438 L 405.875 712.773438 L 405.875 711.605469 L 427.585938 711.605469 C 427.851562 711.976562 428.0625 712.402344 428.277344 712.773438 Z M 475.253906 694.195312 C 481.148438 694.195312 485.976562 698.972656 485.976562 704.917969 C 485.976562 710.863281 481.148438 715.640625 475.253906 715.640625 C 469.363281 715.640625 464.53125 710.863281 464.53125 704.917969 C 464.53125 698.972656 469.363281 694.195312 475.253906 694.195312 Z M 507 726.628906 L 507 794.308594 L 357.941406 794.308594 L 357.941406 726.628906 Z M 453.648438 712.773438 C 453.863281 712.402344 454.128906 711.976562 454.289062 711.605469 L 461.878906 711.605469 C 462.089844 712.03125 462.304688 712.402344 462.515625 712.773438 Z M 440.964844 715.585938 C 435.070312 715.585938 430.242188 710.808594 430.242188 704.863281 C 430.242188 698.917969 435.019531 694.140625 440.964844 694.140625 C 446.855469 694.140625 451.6875 698.917969 451.6875 704.863281 C 451.6875 710.808594 446.855469 715.585938 440.964844 715.585938 Z M 307.828125 723.335938 C 307.828125 724.503906 307.246094 725.566406 306.34375 726.257812 L 306.34375 720.417969 C 307.246094 721.105469 307.828125 722.167969 307.828125 723.335938 Z M 490.066406 706.988281 L 497.179688 706.988281 L 497.179688 707.359375 L 489.960938 707.359375 C 490.011719 707.253906 490.011719 707.09375 490.066406 706.988281 Z M 455.773438 706.988281 L 460.445312 706.988281 C 460.445312 707.09375 460.5 707.253906 460.5 707.359375 L 455.71875 707.359375 C 455.71875 707.253906 455.773438 707.09375 455.773438 706.988281 Z M 455.773438 706.988281 " fill-opacity="1" fill-rule="nonzero"/></g><path fill="#dbe2ef" d="M 327.046875 768.722656 C 330.761719 771.378906 334.742188 771.378906 338.246094 771.378906 L 349.339844 771.378906 C 350.507812 771.378906 351.464844 770.421875 351.464844 769.253906 L 351.464844 743.828125 C 351.464844 742.660156 350.507812 741.703125 349.339844 741.703125 L 320.886719 741.703125 C 319.773438 741.757812 318.816406 742.660156 318.816406 743.828125 C 318.816406 743.878906 318.816406 743.984375 318.816406 744.039062 C 318.871094 752.640625 320.304688 763.945312 327.046875 768.722656 Z M 347.21875 745.898438 L 347.21875 767.078125 L 338.246094 767.078125 C 334.953125 767.078125 332.089844 767.078125 329.488281 765.21875 C 324.605469 761.769531 323.277344 753.011719 323.117188 745.898438 Z M 347.21875 745.898438 " fill-opacity="1" fill-rule="nonzero"/><path fill="#dbe2ef" d="M 333.574219 695.625 C 328.480469 695.625 324.339844 699.765625 324.339844 704.863281 C 324.339844 709.960938 328.480469 714.101562 333.574219 714.101562 C 338.671875 714.101562 342.8125 709.960938 342.8125 704.863281 C 342.8125 699.765625 338.671875 695.625 333.574219 695.625 Z M 333.574219 709.851562 C 330.816406 709.851562 328.585938 707.625 328.585938 704.863281 C 328.585938 702.101562 330.816406 699.875 333.574219 699.875 C 336.335938 699.875 338.566406 702.101562 338.566406 704.863281 C 338.566406 707.625 336.28125 709.851562 333.574219 709.851562 Z M 333.574219 709.851562 " fill-opacity="1" fill-rule="nonzero"/><path fill="#dbe2ef" d="M 475.253906 714.101562 C 480.351562 714.101562 484.492188 709.960938 484.492188 704.863281 C 484.492188 699.765625 480.351562 695.625 475.253906 695.625 C 470.160156 695.625 466.019531 699.765625 466.019531 704.863281 C 466.019531 709.960938 470.160156 714.101562 475.253906 714.101562 Z M 475.253906 699.875 C 478.015625 699.875 480.246094 702.101562 480.246094 704.863281 C 480.246094 707.625 478.015625 709.851562 475.253906 709.851562 C 472.496094 709.851562 470.265625 707.625 470.265625 704.863281 C 470.265625 702.101562 472.496094 699.875 475.253906 699.875 Z M 475.253906 699.875 " fill-opacity="1" fill-rule="nonzero"/><path fill="#dbe2ef" d="M 440.964844 695.625 C 435.867188 695.625 431.726562 699.765625 431.726562 704.863281 C 431.726562 709.960938 435.867188 714.101562 440.964844 714.101562 C 446.058594 714.101562 450.199219 709.960938 450.199219 704.863281 C 450.199219 699.765625 446.058594 695.625 440.964844 695.625 Z M 440.964844 709.851562 C 438.203125 709.851562 435.972656 707.625 435.972656 704.863281 C 435.972656 702.101562 438.203125 699.875 440.964844 699.875 C 443.722656 699.875 445.953125 702.101562 445.953125 704.863281 C 445.953125 707.625 443.722656 709.851562 440.964844 709.851562 Z M 440.964844 709.851562 " fill-opacity="1" fill-rule="nonzero"/></svg>