<svg xmlns="http://www.w3.org/2000/svg" xmlns:xlink="http://www.w3.org/1999/xlink" width="150" zoomAndPan="magnify" viewBox="0 0 112.5 809.999998" height="1080" preserveAspectRatio="xMidYMid meet" version="1.0"><defs><clipPath id="0a4fde07c1"><path d="M 11.199219 233.261719 L 100.800781 233.261719 L 100.800781 336.304688 L 11.199219 336.304688 Z M 11.199219 233.261719 " clip-rule="nonzero"/></clipPath><clipPath id="d78aa5afcf"><path d="M 11.199219 2.539062 L 100.800781 2.539062 L 100.800781 92.140625 L 11.199219 92.140625 Z M 11.199219 2.539062 " clip-rule="nonzero"/></clipPath><clipPath id="822a8beeac"><path d="M 11.199219 703.671875 L 100.800781 703.671875 L 100.800781 801.488281 L 11.199219 801.488281 Z M 11.199219 703.671875 " clip-rule="nonzero"/></clipPath><clipPath id="c7d5369715"><path d="M 27.8125 117.527344 L 84.1875 117.527344 L 84.1875 173.902344 L 27.8125 173.902344 Z M 27.8125 117.527344 " clip-rule="nonzero"/></clipPath><clipPath id="effcb3494a"><path d="M 56 117.527344 C 40.433594 117.527344 27.8125 130.148438 27.8125 145.714844 C 27.8125 161.28125 40.433594 173.902344 56 173.902344 C 71.570312 173.902344 84.1875 161.28125 84.1875 145.714844 C 84.1875 130.148438 71.570312 117.527344 56 117.527344 Z M 56 117.527344 " clip-rule="nonzero"/></clipPath><clipPath id="47ed54ec13"><path d="M 27.8125 349 L 84.1875 349 L 84.1875 405.375 L 27.8125 405.375 Z M 27.8125 349 " clip-rule="nonzero"/></clipPath><clipPath id="b1e51da2a6"><path d="M 56 349 C 40.433594 349 27.8125 361.617188 27.8125 377.1875 C 27.8125 392.753906 40.433594 405.375 56 405.375 C 71.570312 405.375 84.1875 392.753906 84.1875 377.1875 C 84.1875 361.617188 71.570312 349 56 349 Z M 56 349 " clip-rule="nonzero"/></clipPath><clipPath id="785fd151d4"><path d="M 27.8125 465.109375 L 84.1875 465.109375 L 84.1875 521.480469 L 27.8125 521.480469 Z M 27.8125 465.109375 " clip-rule="nonzero"/></clipPath><clipPath id="402953f556"><path d="M 56 465.109375 C 40.433594 465.109375 27.8125 477.726562 27.8125 493.296875 C 27.8125 508.863281 40.433594 521.480469 56 521.480469 C 71.570312 521.480469 84.1875 508.863281 84.1875 493.296875 C 84.1875 477.726562 71.570312 465.109375 56 465.109375 Z M 56 465.109375 " clip-rule="nonzero"/></clipPath><clipPath id="4f1125a1dc"><path d="M 27.8125 581.21875 L 84.1875 581.21875 L 84.1875 637.589844 L 27.8125 637.589844 Z M 27.8125 581.21875 " clip-rule="nonzero"/></clipPath><clipPath id="e2624a13d2"><path d="M 56 581.21875 C 40.433594 581.21875 27.8125 593.835938 27.8125 609.402344 C 27.8125 624.972656 40.433594 637.589844 56 637.589844 C 71.570312 637.589844 84.1875 624.972656 84.1875 609.402344 C 84.1875 593.835938 71.570312 581.21875 56 581.21875 Z M 56 581.21875 " clip-rule="nonzero"/></clipPath></defs><g clip-path="url(#0a4fde07c1)"><path fill="#ffffff" d="M 100.8125 259.9375 C 100.8125 259.34375 100.496094 258.796875 99.984375 258.5 L 56.839844 233.589844 C 56.324219 233.292969 55.691406 233.292969 55.179688 233.589844 L 27.230469 249.726562 C 27.226562 249.726562 27.226562 249.730469 27.226562 249.730469 L 12.039062 258.496094 C 12.039062 258.5 12.035156 258.5 12.03125 258.5 C 11.96875 258.539062 11.90625 258.578125 11.847656 258.625 C 11.441406 258.9375 11.199219 259.421875 11.199219 259.941406 C 11.199219 259.953125 11.203125 259.964844 11.203125 259.976562 L 11.199219 309.761719 C 11.199219 310.351562 11.515625 310.902344 12.03125 311.199219 L 55.175781 336.109375 C 55.433594 336.257812 55.71875 336.328125 56.007812 336.328125 C 56.292969 336.328125 56.578125 336.253906 56.835938 336.109375 L 99.984375 311.199219 C 100.496094 310.902344 100.8125 310.351562 100.8125 309.761719 Z M 83.105469 271.117188 L 83.105469 278.078125 L 73.175781 283.8125 L 73.175781 276.851562 Z M 28.09375 253.0625 L 67.917969 276.054688 L 56.007812 282.929688 L 16.183594 259.9375 Z M 41.621094 245.25 L 81.445312 268.242188 L 71.234375 274.136719 L 31.414062 251.144531 Z M 56.007812 236.945312 L 95.828125 259.9375 L 84.765625 266.328125 L 44.941406 243.332031 Z M 14.523438 262.816406 L 54.347656 285.804688 L 54.347656 331.796875 L 14.519531 308.804688 Z M 57.667969 331.792969 L 57.667969 285.804688 L 69.855469 278.765625 L 69.855469 286.6875 C 69.855469 287.277344 70.171875 287.828125 70.6875 288.125 C 70.941406 288.273438 71.230469 288.34375 71.515625 288.34375 C 71.800781 288.34375 72.089844 288.269531 72.34375 288.125 L 85.597656 280.472656 C 86.109375 280.175781 86.425781 279.628906 86.425781 279.035156 L 86.425781 269.203125 L 97.492188 262.8125 L 97.492188 308.800781 Z M 77.542969 297.21875 C 77.03125 296.925781 76.398438 296.925781 75.882812 297.21875 L 63.234375 304.523438 C 62.71875 304.820312 62.402344 305.367188 62.402344 305.960938 L 62.402344 320.570312 C 62.402344 321.164062 62.71875 321.710938 63.234375 322.007812 C 63.488281 322.15625 63.777344 322.230469 64.0625 322.230469 C 64.347656 322.230469 64.636719 322.15625 64.890625 322.007812 L 77.542969 314.703125 C 78.054688 314.40625 78.371094 313.859375 78.371094 313.265625 L 78.371094 298.65625 C 78.371094 298.066406 78.054688 297.515625 77.542969 297.21875 Z M 65.722656 317.695312 L 65.722656 306.921875 L 75.050781 301.53125 L 75.050781 312.308594 Z M 29.320312 310.59375 C 29.011719 311.128906 28.457031 311.425781 27.878906 311.425781 C 27.597656 311.425781 27.3125 311.351562 27.050781 311.203125 L 18.441406 306.230469 C 17.648438 305.773438 17.375 304.753906 17.832031 303.964844 C 18.292969 303.167969 19.304688 302.898438 20.101562 303.355469 L 28.710938 308.328125 C 29.503906 308.785156 29.777344 309.800781 29.320312 310.59375 Z M 29.320312 310.59375 " fill-opacity="1" fill-rule="nonzero"/></g><g clip-path="url(#d78aa5afcf)"><path fill="#ffffff" d="M 97.21875 2.539062 L 81.984375 2.539062 L 78.402344 47.339844 L 64.960938 47.339844 L 64.960938 33.898438 L 38.082031 47.339844 L 38.082031 33.898438 L 11.199219 47.339844 L 11.199219 92.140625 L 100.800781 92.140625 Z M 29.121094 65.261719 L 20.160156 65.261719 L 20.160156 56.300781 L 29.121094 56.300781 Z M 47.039062 65.261719 L 38.082031 65.261719 L 38.082031 56.300781 L 47.039062 56.300781 Z M 56 56.300781 L 64.960938 56.300781 L 64.960938 65.261719 L 56 65.261719 Z M 29.121094 83.179688 L 20.160156 83.179688 L 20.160156 74.21875 L 29.121094 74.21875 Z M 47.039062 83.179688 L 38.082031 83.179688 L 38.082031 74.21875 L 47.039062 74.21875 Z M 56 74.21875 L 64.960938 74.21875 L 64.960938 83.179688 L 56 83.179688 Z M 73.921875 56.300781 L 82.882812 56.300781 L 82.882812 65.261719 L 73.921875 65.261719 Z M 73.921875 74.21875 L 82.882812 74.21875 L 82.882812 83.179688 L 73.921875 83.179688 Z M 73.921875 74.21875 " fill-opacity="1" fill-rule="nonzero"/></g><g clip-path="url(#822a8beeac)"><path fill="#ffffff" d="M 100.796875 792.324219 L 100.796875 791.339844 C 100.796875 785.296875 99.609375 779.429688 97.273438 773.90625 C 95.015625 768.570312 91.789062 763.78125 87.675781 759.667969 C 83.5625 755.558594 78.773438 752.328125 73.4375 750.070312 C 73.089844 749.921875 72.734375 749.78125 72.378906 749.640625 C 73.050781 749.089844 73.699219 748.507812 74.316406 747.886719 C 76.695312 745.511719 78.5625 742.742188 79.867188 739.65625 C 81.21875 736.460938 81.902344 733.066406 81.902344 729.574219 C 81.902344 726.078125 81.21875 722.6875 79.867188 719.488281 C 78.5625 716.40625 76.695312 713.636719 74.316406 711.257812 C 71.941406 708.882812 69.171875 707.015625 66.085938 705.710938 C 62.890625 704.359375 59.496094 703.671875 56.003906 703.671875 C 52.507812 703.671875 49.117188 704.359375 45.917969 705.710938 C 42.835938 707.015625 40.066406 708.882812 37.6875 711.257812 C 35.308594 713.636719 33.445312 716.40625 32.140625 719.488281 C 30.785156 722.6875 30.101562 726.078125 30.101562 729.574219 C 30.101562 733.066406 30.785156 736.460938 32.140625 739.65625 C 33.445312 742.742188 35.3125 745.511719 37.6875 747.886719 C 38.308594 748.507812 38.953125 749.089844 39.625 749.640625 C 39.269531 749.78125 38.914062 749.921875 38.566406 750.070312 C 33.230469 752.328125 28.441406 755.558594 24.328125 759.667969 C 20.21875 763.78125 16.988281 768.570312 14.734375 773.90625 C 12.394531 779.429688 11.210938 785.296875 11.210938 791.339844 L 11.210938 792.324219 C 11.210938 796.921875 14.738281 800.710938 19.230469 801.125 L 93.382812 801.050781 L 93.410156 801.046875 C 94.183594 800.96875 94.929688 800.738281 95.613281 800.371094 C 98.667969 798.976562 100.796875 795.894531 100.796875 792.324219 Z M 36.914062 737.636719 C 35.832031 735.082031 35.285156 732.371094 35.285156 729.574219 C 35.285156 726.777344 35.832031 724.0625 36.914062 721.507812 C 37.957031 719.042969 39.449219 716.824219 41.351562 714.921875 C 43.253906 713.019531 45.472656 711.527344 47.9375 710.484375 C 50.492188 709.402344 53.207031 708.855469 56.003906 708.855469 C 58.800781 708.855469 61.511719 709.402344 64.066406 710.484375 C 66.535156 711.527344 68.75 713.019531 70.652344 714.921875 C 72.554688 716.824219 74.050781 719.042969 75.09375 721.507812 C 76.171875 724.0625 76.722656 726.777344 76.722656 729.574219 C 76.722656 732.371094 76.171875 735.082031 75.09375 737.636719 C 74.050781 740.105469 72.554688 742.320312 70.652344 744.222656 C 68.75 746.125 66.535156 747.621094 64.066406 748.664062 C 61.511719 749.742188 58.800781 750.292969 56.003906 750.292969 C 53.207031 750.292969 50.492188 749.742188 47.9375 748.664062 C 45.472656 747.621094 43.253906 746.125 41.351562 744.222656 C 39.449219 742.320312 37.957031 740.105469 36.914062 737.636719 Z M 95.613281 792.324219 C 95.613281 794.34375 93.972656 795.980469 91.957031 795.980469 L 20.050781 795.980469 C 18.03125 795.980469 16.394531 794.34375 16.394531 792.324219 L 16.394531 791.339844 C 16.394531 785.996094 17.441406 780.808594 19.503906 775.921875 C 21.5 771.207031 24.355469 766.972656 27.992188 763.332031 C 31.632812 759.695312 35.867188 756.839844 40.585938 754.84375 C 41.625 754.40625 42.691406 754.007812 43.757812 753.660156 C 44.132812 753.539062 44.511719 753.421875 44.886719 753.3125 C 45.023438 753.269531 45.15625 753.21875 45.285156 753.15625 C 45.496094 753.253906 45.707031 753.347656 45.917969 753.4375 C 49.117188 754.789062 52.507812 755.472656 56.003906 755.472656 C 59.496094 755.472656 62.890625 754.789062 66.085938 753.4375 C 66.300781 753.347656 66.511719 753.253906 66.722656 753.15625 C 66.847656 753.21875 66.980469 753.269531 67.121094 753.3125 C 68.570312 753.734375 70.019531 754.25 71.421875 754.84375 C 76.136719 756.839844 80.375 759.695312 84.011719 763.332031 C 87.648438 766.972656 90.503906 771.207031 92.5 775.921875 C 94.566406 780.808594 95.613281 785.996094 95.613281 791.339844 Z M 95.613281 792.324219 " fill-opacity="1" fill-rule="nonzero"/></g><g clip-path="url(#c7d5369715)"><g clip-path="url(#effcb3494a)"><path fill="#ffffff" d="M 27.8125 117.527344 L 84.1875 117.527344 L 84.1875 173.902344 L 27.8125 173.902344 Z M 27.8125 117.527344 " fill-opacity="1" fill-rule="nonzero"/></g></g><g clip-path="url(#47ed54ec13)"><g clip-path="url(#b1e51da2a6)"><path fill="#ffffff" d="M 27.8125 349 L 84.1875 349 L 84.1875 405.375 L 27.8125 405.375 Z M 27.8125 349 " fill-opacity="1" fill-rule="nonzero"/></g></g><g clip-path="url(#785fd151d4)"><g clip-path="url(#402953f556)"><path fill="#ffffff" d="M 27.8125 465.109375 L 84.1875 465.109375 L 84.1875 521.480469 L 27.8125 521.480469 Z M 27.8125 465.109375 " fill-opacity="1" fill-rule="nonzero"/></g></g><g clip-path="url(#4f1125a1dc)"><g clip-path="url(#e2624a13d2)"><path fill="#ffffff" d="M 27.8125 581.21875 L 84.1875 581.21875 L 84.1875 637.589844 L 27.8125 637.589844 Z M 27.8125 581.21875 " fill-opacity="1" fill-rule="nonzero"/></g></g></svg>